G04 #@! TF.GenerationSoftware,KiCad,Pcbnew,(5.1.6)-1*
G04 #@! TF.CreationDate,2022-02-26T06:54:02-05:00*
G04 #@! TF.ProjectId,C64-PSU-NA,4336342d-5053-4552-9d4e-412e6b696361,rev?*
G04 #@! TF.SameCoordinates,Original*
G04 #@! TF.FileFunction,Copper,L1,Top*
G04 #@! TF.FilePolarity,Positive*
%FSLAX46Y46*%
G04 Gerber Fmt 4.6, Leading zero omitted, Abs format (unit mm)*
G04 Created by KiCad (PCBNEW (5.1.6)-1) date 2022-02-26 06:54:02*
%MOMM*%
%LPD*%
G01*
G04 APERTURE LIST*
G04 #@! TA.AperFunction,ComponentPad*
%ADD10C,3.000000*%
G04 #@! TD*
G04 #@! TA.AperFunction,ComponentPad*
%ADD11C,2.250000*%
G04 #@! TD*
G04 #@! TA.AperFunction,ComponentPad*
%ADD12C,2.745000*%
G04 #@! TD*
G04 #@! TA.AperFunction,ComponentPad*
%ADD13R,1.700000X1.700000*%
G04 #@! TD*
G04 #@! TA.AperFunction,ComponentPad*
%ADD14O,1.700000X1.700000*%
G04 #@! TD*
G04 #@! TA.AperFunction,ComponentPad*
%ADD15C,1.860000*%
G04 #@! TD*
G04 #@! TA.AperFunction,ComponentPad*
%ADD16C,1.400000*%
G04 #@! TD*
G04 #@! TA.AperFunction,ComponentPad*
%ADD17O,1.400000X1.400000*%
G04 #@! TD*
G04 #@! TA.AperFunction,ComponentPad*
%ADD18C,2.550000*%
G04 #@! TD*
G04 #@! TA.AperFunction,Conductor*
%ADD19C,2.000000*%
G04 #@! TD*
G04 APERTURE END LIST*
D10*
X96699400Y-121276800D03*
X101799400Y-121276800D03*
X142399400Y-121276800D03*
X147499400Y-121276800D03*
X144999400Y-70476800D03*
X139899400Y-70476800D03*
X104299400Y-70476800D03*
X99199400Y-70476800D03*
D11*
X85699600Y-107449000D03*
X85699600Y-92449000D03*
D12*
X83134200Y-117525800D03*
X88214200Y-117525800D03*
X88214200Y-82626200D03*
X83134200Y-82626200D03*
X185343800Y-80416400D03*
X190423800Y-80416400D03*
X190449200Y-73634600D03*
X185369200Y-73634600D03*
X185115200Y-117449600D03*
X190195200Y-117449600D03*
X190220600Y-110769400D03*
X185140600Y-110769400D03*
D13*
X189687200Y-92075000D03*
D14*
X189687200Y-89535000D03*
D15*
X163614400Y-118288200D03*
X155614400Y-118288200D03*
X176414400Y-73288200D03*
X155614400Y-73288200D03*
D16*
X185343800Y-94462600D03*
D17*
X185343800Y-86842600D03*
G04 #@! TA.AperFunction,ComponentPad*
G36*
G01*
X105338800Y-64430799D02*
X105338800Y-66480801D01*
G75*
G02*
X105088801Y-66730800I-249999J0D01*
G01*
X103038799Y-66730800D01*
G75*
G02*
X102788800Y-66480801I0J249999D01*
G01*
X102788800Y-64430799D01*
G75*
G02*
X103038799Y-64180800I249999J0D01*
G01*
X105088801Y-64180800D01*
G75*
G02*
X105338800Y-64430799I0J-249999D01*
G01*
G37*
G04 #@! TD.AperFunction*
D18*
X99263800Y-65455800D03*
X87959600Y-74269600D03*
G04 #@! TA.AperFunction,ComponentPad*
G36*
G01*
X81884600Y-75294601D02*
X81884600Y-73244599D01*
G75*
G02*
X82134599Y-72994600I249999J0D01*
G01*
X84184601Y-72994600D01*
G75*
G02*
X84434600Y-73244599I0J-249999D01*
G01*
X84434600Y-75294601D01*
G75*
G02*
X84184601Y-75544600I-249999J0D01*
G01*
X82134599Y-75544600D01*
G75*
G02*
X81884600Y-75294601I0J249999D01*
G01*
G37*
G04 #@! TD.AperFunction*
G04 #@! TA.AperFunction,ComponentPad*
G36*
G01*
X126319200Y-64430799D02*
X126319200Y-66480801D01*
G75*
G02*
X126069201Y-66730800I-249999J0D01*
G01*
X124019199Y-66730800D01*
G75*
G02*
X123769200Y-66480801I0J249999D01*
G01*
X123769200Y-64430799D01*
G75*
G02*
X124019199Y-64180800I249999J0D01*
G01*
X126069201Y-64180800D01*
G75*
G02*
X126319200Y-64430799I0J-249999D01*
G01*
G37*
G04 #@! TD.AperFunction*
X120244200Y-65455800D03*
D19*
X85699600Y-115011200D02*
X88214200Y-117525800D01*
X85699600Y-107449000D02*
X85699600Y-115011200D01*
X85648800Y-115011200D02*
X85699600Y-115011200D01*
X83134200Y-117525800D02*
X88214200Y-117525800D01*
X86626700Y-115938300D02*
X84721700Y-115938300D01*
X88214200Y-117525800D02*
X86626700Y-115938300D01*
X83134200Y-117525800D02*
X84721700Y-115938300D01*
X84721700Y-115938300D02*
X85648800Y-115011200D01*
X185115200Y-117449600D02*
X190195200Y-117449600D01*
X142399400Y-123767200D02*
X142399400Y-121276800D01*
X98729800Y-125984000D02*
X140182600Y-125984000D01*
X96699400Y-121276800D02*
X96699400Y-123953600D01*
X140182600Y-125984000D02*
X142399400Y-123767200D01*
X96699400Y-123953600D02*
X98729800Y-125984000D01*
X146013200Y-127381000D02*
X142399400Y-123767200D01*
X185115200Y-117449600D02*
X175183800Y-127381000D01*
X175183800Y-127381000D02*
X146013200Y-127381000D01*
X185140600Y-110769400D02*
X190220600Y-110769400D01*
X173075600Y-122834400D02*
X185140600Y-110769400D01*
X145389600Y-116027200D02*
X147499400Y-118137000D01*
X147499400Y-118137000D02*
X147499400Y-121276800D01*
X101799400Y-121276800D02*
X107049000Y-116027200D01*
X107049000Y-116027200D02*
X145389600Y-116027200D01*
X149057000Y-122834400D02*
X147499400Y-121276800D01*
X173075600Y-122834400D02*
X149057000Y-122834400D01*
X152908000Y-87757000D02*
X90391600Y-87757000D01*
X90391600Y-87757000D02*
X85699600Y-92449000D01*
X176414400Y-73288200D02*
X167376800Y-73288200D01*
X167376800Y-73288200D02*
X152908000Y-87757000D01*
X99199400Y-65520200D02*
X99263800Y-65455800D01*
X99199400Y-70476800D02*
X99199400Y-65520200D01*
X83134200Y-74295000D02*
X83159600Y-74269600D01*
X83134200Y-82626200D02*
X83134200Y-74295000D01*
X88214200Y-82626200D02*
X141757400Y-82626200D01*
X141757400Y-82626200D02*
X144999400Y-79384200D01*
X152803000Y-70476800D02*
X155614400Y-73288200D01*
X88214200Y-82626200D02*
X83134200Y-82626200D01*
X144999400Y-79384200D02*
X144999400Y-70476800D01*
X144999400Y-70476800D02*
X152803000Y-70476800D01*
X139899400Y-67992000D02*
X139899400Y-70476800D01*
X125044200Y-65455800D02*
X137363200Y-65455800D01*
X137363200Y-65455800D02*
X139899400Y-67992000D01*
X120244200Y-65455800D02*
X113715800Y-65455800D01*
X113715800Y-65455800D02*
X108737400Y-70434200D01*
X101650800Y-77317600D02*
X104299400Y-74669000D01*
X87959600Y-74269600D02*
X91007600Y-77317600D01*
X91007600Y-77317600D02*
X101650800Y-77317600D01*
X104342000Y-70434200D02*
X104299400Y-70476800D01*
X108737400Y-70434200D02*
X104342000Y-70434200D01*
X104299400Y-74669000D02*
X104299400Y-70476800D01*
M02*
