%FSLAX45Y45*%
G04 Gerber Fmt 4.5, Leading zero omitted, Abs format (unit mm)*
G04 Created by KiCad (PCBNEW (5.1.6)-1) date 2022-02-26 06:54:06*
%MOMM*%
%LPD*%
G01*
G04 APERTURE LIST*
%TA.AperFunction,Profile*%
%ADD10C,0.050000*%
%TD*%
%ADD11C,0.200000*%
%ADD12C,0.300000*%
G04 APERTURE END LIST*
D10*
X12469780Y-9576528D02*
G75*
G03*
X12469780Y-9576528I-260000J0D01*
G01*
X8249260Y-12606020D02*
G75*
G03*
X8249260Y-12606020I-200000J0D01*
G01*
X8249260Y-6609080D02*
G75*
G03*
X8249260Y-6609080I-200000J0D01*
G01*
X19372580Y-12608560D02*
G75*
G03*
X19372580Y-12608560I-200000J0D01*
G01*
X19369380Y-6609080D02*
G75*
G03*
X19369380Y-6609080I-200000J0D01*
G01*
X7598640Y-13012870D02*
X19598640Y-13012660D01*
X7598640Y-6212840D02*
X7598640Y-13012870D01*
X19598640Y-6212630D02*
X19598640Y-13012660D01*
X7598640Y-6212840D02*
X19598640Y-6212840D01*
D11*
X8437460Y-9862400D02*
X8702460Y-10127400D01*
X8702460Y-9862400D02*
X8437460Y-10127400D01*
D12*
X7882568Y-13481084D02*
X7882568Y-13181084D01*
X7953997Y-13181084D01*
X7996854Y-13195370D01*
X8025426Y-13223941D01*
X8039711Y-13252513D01*
X8053997Y-13309656D01*
X8053997Y-13352513D01*
X8039711Y-13409656D01*
X8025426Y-13438227D01*
X7996854Y-13466799D01*
X7953997Y-13481084D01*
X7882568Y-13481084D01*
X8182568Y-13481084D02*
X8182568Y-13281084D01*
X8182568Y-13338227D02*
X8196854Y-13309656D01*
X8211140Y-13295370D01*
X8239711Y-13281084D01*
X8268283Y-13281084D01*
X8368283Y-13481084D02*
X8368283Y-13281084D01*
X8368283Y-13181084D02*
X8353997Y-13195370D01*
X8368283Y-13209656D01*
X8382568Y-13195370D01*
X8368283Y-13181084D01*
X8368283Y-13209656D01*
X8553997Y-13481084D02*
X8525426Y-13466799D01*
X8511140Y-13438227D01*
X8511140Y-13181084D01*
X8711140Y-13481084D02*
X8682568Y-13466799D01*
X8668283Y-13438227D01*
X8668283Y-13181084D01*
X9053997Y-13481084D02*
X9053997Y-13181084D01*
X9153997Y-13395370D01*
X9253997Y-13181084D01*
X9253997Y-13481084D01*
X9525426Y-13481084D02*
X9525426Y-13323941D01*
X9511140Y-13295370D01*
X9482568Y-13281084D01*
X9425426Y-13281084D01*
X9396854Y-13295370D01*
X9525426Y-13466799D02*
X9496854Y-13481084D01*
X9425426Y-13481084D01*
X9396854Y-13466799D01*
X9382568Y-13438227D01*
X9382568Y-13409656D01*
X9396854Y-13381084D01*
X9425426Y-13366799D01*
X9496854Y-13366799D01*
X9525426Y-13352513D01*
X9668283Y-13281084D02*
X9668283Y-13581084D01*
X9668283Y-13295370D02*
X9696854Y-13281084D01*
X9753997Y-13281084D01*
X9782568Y-13295370D01*
X9796854Y-13309656D01*
X9811140Y-13338227D01*
X9811140Y-13423941D01*
X9796854Y-13452513D01*
X9782568Y-13466799D01*
X9753997Y-13481084D01*
X9696854Y-13481084D01*
X9668283Y-13466799D01*
X9939711Y-13452513D02*
X9953997Y-13466799D01*
X9939711Y-13481084D01*
X9925426Y-13466799D01*
X9939711Y-13452513D01*
X9939711Y-13481084D01*
X9939711Y-13295370D02*
X9953997Y-13309656D01*
X9939711Y-13323941D01*
X9925426Y-13309656D01*
X9939711Y-13295370D01*
X9939711Y-13323941D01*
X7331140Y-13842870D02*
X7596140Y-14107870D01*
X7596140Y-13842870D02*
X7331140Y-14107870D01*
X7868283Y-13839656D02*
X7882568Y-13825370D01*
X7911140Y-13811084D01*
X7982568Y-13811084D01*
X8011140Y-13825370D01*
X8025426Y-13839656D01*
X8039711Y-13868227D01*
X8039711Y-13896799D01*
X8025426Y-13939656D01*
X7853997Y-14111084D01*
X8039711Y-14111084D01*
X8168283Y-14082513D02*
X8182568Y-14096799D01*
X8168283Y-14111084D01*
X8153997Y-14096799D01*
X8168283Y-14082513D01*
X8168283Y-14111084D01*
X8439711Y-13811084D02*
X8382568Y-13811084D01*
X8353997Y-13825370D01*
X8339711Y-13839656D01*
X8311140Y-13882513D01*
X8296854Y-13939656D01*
X8296854Y-14053941D01*
X8311140Y-14082513D01*
X8325426Y-14096799D01*
X8353997Y-14111084D01*
X8411140Y-14111084D01*
X8439711Y-14096799D01*
X8453997Y-14082513D01*
X8468283Y-14053941D01*
X8468283Y-13982513D01*
X8453997Y-13953941D01*
X8439711Y-13939656D01*
X8411140Y-13925370D01*
X8353997Y-13925370D01*
X8325426Y-13939656D01*
X8311140Y-13953941D01*
X8296854Y-13982513D01*
X8739711Y-13811084D02*
X8596854Y-13811084D01*
X8582568Y-13953941D01*
X8596854Y-13939656D01*
X8625426Y-13925370D01*
X8696854Y-13925370D01*
X8725426Y-13939656D01*
X8739711Y-13953941D01*
X8753997Y-13982513D01*
X8753997Y-14053941D01*
X8739711Y-14082513D01*
X8725426Y-14096799D01*
X8696854Y-14111084D01*
X8625426Y-14111084D01*
X8596854Y-14096799D01*
X8582568Y-14082513D01*
X8882568Y-14111084D02*
X8882568Y-13911084D01*
X8882568Y-13939656D02*
X8896854Y-13925370D01*
X8925426Y-13911084D01*
X8968283Y-13911084D01*
X8996854Y-13925370D01*
X9011140Y-13953941D01*
X9011140Y-14111084D01*
X9011140Y-13953941D02*
X9025426Y-13925370D01*
X9053997Y-13911084D01*
X9096854Y-13911084D01*
X9125426Y-13925370D01*
X9139711Y-13953941D01*
X9139711Y-14111084D01*
X9282568Y-14111084D02*
X9282568Y-13911084D01*
X9282568Y-13939656D02*
X9296854Y-13925370D01*
X9325426Y-13911084D01*
X9368283Y-13911084D01*
X9396854Y-13925370D01*
X9411140Y-13953941D01*
X9411140Y-14111084D01*
X9411140Y-13953941D02*
X9425426Y-13925370D01*
X9453997Y-13911084D01*
X9496854Y-13911084D01*
X9525426Y-13925370D01*
X9539711Y-13953941D01*
X9539711Y-14111084D01*
X10125426Y-13796799D02*
X9868283Y-14182513D01*
X10511140Y-13811084D02*
X10539711Y-13811084D01*
X10568283Y-13825370D01*
X10582568Y-13839656D01*
X10596854Y-13868227D01*
X10611140Y-13925370D01*
X10611140Y-13996799D01*
X10596854Y-14053941D01*
X10582568Y-14082513D01*
X10568283Y-14096799D01*
X10539711Y-14111084D01*
X10511140Y-14111084D01*
X10482568Y-14096799D01*
X10468283Y-14082513D01*
X10453997Y-14053941D01*
X10439711Y-13996799D01*
X10439711Y-13925370D01*
X10453997Y-13868227D01*
X10468283Y-13839656D01*
X10482568Y-13825370D01*
X10511140Y-13811084D01*
X10739711Y-14082513D02*
X10753997Y-14096799D01*
X10739711Y-14111084D01*
X10725426Y-14096799D01*
X10739711Y-14082513D01*
X10739711Y-14111084D01*
X11039711Y-14111084D02*
X10868283Y-14111084D01*
X10953997Y-14111084D02*
X10953997Y-13811084D01*
X10925426Y-13853941D01*
X10896854Y-13882513D01*
X10868283Y-13896799D01*
X11225426Y-13811084D02*
X11253997Y-13811084D01*
X11282568Y-13825370D01*
X11296854Y-13839656D01*
X11311140Y-13868227D01*
X11325426Y-13925370D01*
X11325426Y-13996799D01*
X11311140Y-14053941D01*
X11296854Y-14082513D01*
X11282568Y-14096799D01*
X11253997Y-14111084D01*
X11225426Y-14111084D01*
X11196854Y-14096799D01*
X11182568Y-14082513D01*
X11168283Y-14053941D01*
X11153997Y-13996799D01*
X11153997Y-13925370D01*
X11168283Y-13868227D01*
X11182568Y-13839656D01*
X11196854Y-13825370D01*
X11225426Y-13811084D01*
X11582568Y-13911084D02*
X11582568Y-14111084D01*
X11511140Y-13796799D02*
X11439711Y-14011084D01*
X11625426Y-14011084D01*
X11725426Y-13811084D02*
X11725426Y-13868227D01*
X11839711Y-13811084D02*
X11839711Y-13868227D01*
X12282568Y-14225370D02*
X12268283Y-14211084D01*
X12239711Y-14168227D01*
X12225426Y-14139656D01*
X12211140Y-14096799D01*
X12196854Y-14025370D01*
X12196854Y-13968227D01*
X12211140Y-13896799D01*
X12225426Y-13853941D01*
X12239711Y-13825370D01*
X12268283Y-13782513D01*
X12282568Y-13768227D01*
X12553997Y-14111084D02*
X12382568Y-14111084D01*
X12468283Y-14111084D02*
X12468283Y-13811084D01*
X12439711Y-13853941D01*
X12411140Y-13882513D01*
X12382568Y-13896799D01*
X12911140Y-14111084D02*
X12911140Y-13811084D01*
X13039711Y-14111084D02*
X13039711Y-13953941D01*
X13025426Y-13925370D01*
X12996854Y-13911084D01*
X12953997Y-13911084D01*
X12925426Y-13925370D01*
X12911140Y-13939656D01*
X13225426Y-14111084D02*
X13196854Y-14096799D01*
X13182568Y-14082513D01*
X13168283Y-14053941D01*
X13168283Y-13968227D01*
X13182568Y-13939656D01*
X13196854Y-13925370D01*
X13225426Y-13911084D01*
X13268283Y-13911084D01*
X13296854Y-13925370D01*
X13311140Y-13939656D01*
X13325426Y-13968227D01*
X13325426Y-14053941D01*
X13311140Y-14082513D01*
X13296854Y-14096799D01*
X13268283Y-14111084D01*
X13225426Y-14111084D01*
X13496854Y-14111084D02*
X13468283Y-14096799D01*
X13453997Y-14068227D01*
X13453997Y-13811084D01*
X13725426Y-14096799D02*
X13696854Y-14111084D01*
X13639711Y-14111084D01*
X13611140Y-14096799D01*
X13596854Y-14068227D01*
X13596854Y-13953941D01*
X13611140Y-13925370D01*
X13639711Y-13911084D01*
X13696854Y-13911084D01*
X13725426Y-13925370D01*
X13739711Y-13953941D01*
X13739711Y-13982513D01*
X13596854Y-14011084D01*
X13839711Y-14225370D02*
X13853997Y-14211084D01*
X13882568Y-14168227D01*
X13896854Y-14139656D01*
X13911140Y-14096799D01*
X13925426Y-14025370D01*
X13925426Y-13968227D01*
X13911140Y-13896799D01*
X13896854Y-13853941D01*
X13882568Y-13825370D01*
X13853997Y-13782513D01*
X13839711Y-13768227D01*
X14382568Y-14225370D02*
X14368283Y-14211084D01*
X14339711Y-14168227D01*
X14325426Y-14139656D01*
X14311140Y-14096799D01*
X14296854Y-14025370D01*
X14296854Y-13968227D01*
X14311140Y-13896799D01*
X14325426Y-13853941D01*
X14339711Y-13825370D01*
X14368283Y-13782513D01*
X14382568Y-13768227D01*
X14496854Y-13911084D02*
X14496854Y-14111084D01*
X14496854Y-13939656D02*
X14511140Y-13925370D01*
X14539711Y-13911084D01*
X14582568Y-13911084D01*
X14611140Y-13925370D01*
X14625426Y-13953941D01*
X14625426Y-14111084D01*
X14811140Y-14111084D02*
X14782568Y-14096799D01*
X14768283Y-14082513D01*
X14753997Y-14053941D01*
X14753997Y-13968227D01*
X14768283Y-13939656D01*
X14782568Y-13925370D01*
X14811140Y-13911084D01*
X14853997Y-13911084D01*
X14882568Y-13925370D01*
X14896854Y-13939656D01*
X14911140Y-13968227D01*
X14911140Y-14053941D01*
X14896854Y-14082513D01*
X14882568Y-14096799D01*
X14853997Y-14111084D01*
X14811140Y-14111084D01*
X14996854Y-13911084D02*
X15111140Y-13911084D01*
X15039711Y-13811084D02*
X15039711Y-14068227D01*
X15053997Y-14096799D01*
X15082568Y-14111084D01*
X15111140Y-14111084D01*
X15439711Y-13911084D02*
X15439711Y-14211084D01*
X15439711Y-13925370D02*
X15468283Y-13911084D01*
X15525426Y-13911084D01*
X15553997Y-13925370D01*
X15568283Y-13939656D01*
X15582568Y-13968227D01*
X15582568Y-14053941D01*
X15568283Y-14082513D01*
X15553997Y-14096799D01*
X15525426Y-14111084D01*
X15468283Y-14111084D01*
X15439711Y-14096799D01*
X15753997Y-14111084D02*
X15725426Y-14096799D01*
X15711140Y-14068227D01*
X15711140Y-13811084D01*
X15996854Y-14111084D02*
X15996854Y-13953941D01*
X15982568Y-13925370D01*
X15953997Y-13911084D01*
X15896854Y-13911084D01*
X15868283Y-13925370D01*
X15996854Y-14096799D02*
X15968283Y-14111084D01*
X15896854Y-14111084D01*
X15868283Y-14096799D01*
X15853997Y-14068227D01*
X15853997Y-14039656D01*
X15868283Y-14011084D01*
X15896854Y-13996799D01*
X15968283Y-13996799D01*
X15996854Y-13982513D01*
X16096854Y-13911084D02*
X16211140Y-13911084D01*
X16139711Y-13811084D02*
X16139711Y-14068227D01*
X16153997Y-14096799D01*
X16182568Y-14111084D01*
X16211140Y-14111084D01*
X16425426Y-14096799D02*
X16396854Y-14111084D01*
X16339711Y-14111084D01*
X16311140Y-14096799D01*
X16296854Y-14068227D01*
X16296854Y-13953941D01*
X16311140Y-13925370D01*
X16339711Y-13911084D01*
X16396854Y-13911084D01*
X16425426Y-13925370D01*
X16439711Y-13953941D01*
X16439711Y-13982513D01*
X16296854Y-14011084D01*
X16696854Y-14111084D02*
X16696854Y-13811084D01*
X16696854Y-14096799D02*
X16668283Y-14111084D01*
X16611140Y-14111084D01*
X16582568Y-14096799D01*
X16568283Y-14082513D01*
X16553997Y-14053941D01*
X16553997Y-13968227D01*
X16568283Y-13939656D01*
X16582568Y-13925370D01*
X16611140Y-13911084D01*
X16668283Y-13911084D01*
X16696854Y-13925370D01*
X16811140Y-14225370D02*
X16825426Y-14211084D01*
X16853997Y-14168227D01*
X16868283Y-14139656D01*
X16882568Y-14096799D01*
X16896854Y-14025370D01*
X16896854Y-13968227D01*
X16882568Y-13896799D01*
X16868283Y-13853941D01*
X16853997Y-13825370D01*
X16825426Y-13782513D01*
X16811140Y-13768227D01*
M02*
