%FSLAX45Y45*%
G04 Gerber Fmt 4.5, Leading zero omitted, Abs format (unit mm)*
G04 Created by KiCad (PCBNEW (5.1.6)-1) date 2022-02-26 06:54:06*
%MOMM*%
%LPD*%
G01*
G04 APERTURE LIST*
%TA.AperFunction,Profile*%
%ADD10C,0.050000*%
%TD*%
%ADD11C,0.200000*%
%ADD12C,0.300000*%
G04 APERTURE END LIST*
D10*
X12469780Y-9576528D02*
G75*
G03*
X12469780Y-9576528I-260000J0D01*
G01*
X8249260Y-12606020D02*
G75*
G03*
X8249260Y-12606020I-200000J0D01*
G01*
X8249260Y-6609080D02*
G75*
G03*
X8249260Y-6609080I-200000J0D01*
G01*
X19372580Y-12608560D02*
G75*
G03*
X19372580Y-12608560I-200000J0D01*
G01*
X19369380Y-6609080D02*
G75*
G03*
X19369380Y-6609080I-200000J0D01*
G01*
X7598640Y-13012870D02*
X19598640Y-13012660D01*
X7598640Y-6212840D02*
X7598640Y-13012870D01*
X19598640Y-6212630D02*
X19598640Y-13012660D01*
X7598640Y-6212840D02*
X19598640Y-6212840D01*
D11*
X18499380Y-8649260D02*
X18569380Y-8719260D01*
X18569380Y-8649260D02*
X18499380Y-8719260D01*
X18499380Y-9411260D02*
X18569380Y-9481260D01*
X18569380Y-9411260D02*
X18499380Y-9481260D01*
X19018720Y-8953500D02*
G75*
G03*
X19018720Y-8953500I-50000J0D01*
G01*
X19018720Y-9207500D02*
G75*
G03*
X19018720Y-9207500I-50000J0D01*
G01*
X15561440Y-7266820D02*
X15561440Y-7390820D01*
X15499440Y-7328820D02*
X15623440Y-7328820D01*
X15561440Y-11766820D02*
X15561440Y-11890820D01*
X15499440Y-11828820D02*
X15623440Y-11828820D01*
X16361440Y-11766820D02*
X16361440Y-11890820D01*
X16299440Y-11828820D02*
X16423440Y-11828820D01*
X17641440Y-7266820D02*
X17641440Y-7390820D01*
X17579440Y-7328820D02*
X17703440Y-7328820D01*
X8622994Y-9297934D02*
X8622994Y-9191867D01*
X8516927Y-9191867D01*
X8516927Y-9297934D01*
X8622994Y-9297934D01*
X8622994Y-10797934D02*
X8622994Y-10691867D01*
X8516927Y-10691867D01*
X8516927Y-10797934D01*
X8622994Y-10797934D01*
X9722974Y-12180713D02*
X9722974Y-12074646D01*
X9616907Y-12074646D01*
X9616907Y-12180713D01*
X9722974Y-12180713D01*
X9972974Y-7100713D02*
X9972974Y-6994646D01*
X9866907Y-6994646D01*
X9866907Y-7100713D01*
X9972974Y-7100713D01*
X10232974Y-12180713D02*
X10232974Y-12074646D01*
X10126907Y-12074646D01*
X10126907Y-12180713D01*
X10232974Y-12180713D01*
X10482974Y-7100713D02*
X10482974Y-6994646D01*
X10376907Y-6994646D01*
X10376907Y-7100713D01*
X10482974Y-7100713D01*
X14042973Y-7100713D02*
X14042973Y-6994646D01*
X13936906Y-6994646D01*
X13936906Y-7100713D01*
X14042973Y-7100713D01*
X14292973Y-12180713D02*
X14292973Y-12074646D01*
X14186906Y-12074646D01*
X14186906Y-12180713D01*
X14292973Y-12180713D01*
X14552973Y-7100713D02*
X14552973Y-6994646D01*
X14446906Y-6994646D01*
X14446906Y-7100713D01*
X14552973Y-7100713D01*
X14802973Y-12180713D02*
X14802973Y-12074646D01*
X14696906Y-12074646D01*
X14696906Y-12180713D01*
X14802973Y-12180713D01*
X12024420Y-6623080D02*
X12101920Y-6545580D01*
X12024420Y-6468080D01*
X11946920Y-6545580D01*
X12024420Y-6623080D01*
X12504420Y-6623080D02*
X12581920Y-6545580D01*
X12504420Y-6468080D01*
X12426920Y-6545580D01*
X12504420Y-6623080D01*
X9926380Y-6623080D02*
X10003880Y-6545580D01*
X9926380Y-6468080D01*
X9848880Y-6545580D01*
X9926380Y-6623080D01*
X10406380Y-6623080D02*
X10483880Y-6545580D01*
X10406380Y-6468080D01*
X10328880Y-6545580D01*
X10406380Y-6623080D01*
X8315960Y-7504460D02*
X8393460Y-7426960D01*
X8315960Y-7349460D01*
X8238460Y-7426960D01*
X8315960Y-7504460D01*
X8795960Y-7504460D02*
X8873460Y-7426960D01*
X8795960Y-7349460D01*
X8718460Y-7426960D01*
X8795960Y-7504460D01*
X18442880Y-7950140D02*
X18625880Y-8133140D01*
X18625880Y-7950140D02*
X18442880Y-8133140D01*
X18625880Y-8041640D02*
G75*
G03*
X18625880Y-8041640I-91500J0D01*
G01*
X18950880Y-7950140D02*
X19133880Y-8133140D01*
X19133880Y-7950140D02*
X18950880Y-8133140D01*
X19133880Y-8041640D02*
G75*
G03*
X19133880Y-8041640I-91500J0D01*
G01*
X18422560Y-10985440D02*
X18605560Y-11168440D01*
X18605560Y-10985440D02*
X18422560Y-11168440D01*
X18605560Y-11076940D02*
G75*
G03*
X18605560Y-11076940I-91500J0D01*
G01*
X18930560Y-10985440D02*
X19113560Y-11168440D01*
X19113560Y-10985440D02*
X18930560Y-11168440D01*
X19113560Y-11076940D02*
G75*
G03*
X19113560Y-11076940I-91500J0D01*
G01*
X8221920Y-8171120D02*
X8404920Y-8354120D01*
X8404920Y-8171120D02*
X8221920Y-8354120D01*
X8404920Y-8262620D02*
G75*
G03*
X8404920Y-8262620I-91500J0D01*
G01*
X8729920Y-8171120D02*
X8912920Y-8354120D01*
X8912920Y-8171120D02*
X8729920Y-8354120D01*
X8912920Y-8262620D02*
G75*
G03*
X8912920Y-8262620I-91500J0D01*
G01*
X18445420Y-7271960D02*
X18628420Y-7454960D01*
X18628420Y-7271960D02*
X18445420Y-7454960D01*
X18628420Y-7363460D02*
G75*
G03*
X18628420Y-7363460I-91500J0D01*
G01*
X18953420Y-7271960D02*
X19136420Y-7454960D01*
X19136420Y-7271960D02*
X18953420Y-7454960D01*
X19136420Y-7363460D02*
G75*
G03*
X19136420Y-7363460I-91500J0D01*
G01*
X8221920Y-11661080D02*
X8404920Y-11844080D01*
X8404920Y-11661080D02*
X8221920Y-11844080D01*
X8404920Y-11752580D02*
G75*
G03*
X8404920Y-11752580I-91500J0D01*
G01*
X8729920Y-11661080D02*
X8912920Y-11844080D01*
X8912920Y-11661080D02*
X8729920Y-11844080D01*
X8912920Y-11752580D02*
G75*
G03*
X8912920Y-11752580I-91500J0D01*
G01*
X18420020Y-11653460D02*
X18603020Y-11836460D01*
X18603020Y-11653460D02*
X18420020Y-11836460D01*
X18603020Y-11744960D02*
G75*
G03*
X18603020Y-11744960I-91500J0D01*
G01*
X18928020Y-11653460D02*
X19111020Y-11836460D01*
X19111020Y-11653460D02*
X18928020Y-11836460D01*
X19111020Y-11744960D02*
G75*
G03*
X19111020Y-11744960I-91500J0D01*
G01*
D12*
X7882568Y-13481084D02*
X7882568Y-13181084D01*
X7953997Y-13181084D01*
X7996854Y-13195370D01*
X8025426Y-13223941D01*
X8039711Y-13252513D01*
X8053997Y-13309656D01*
X8053997Y-13352513D01*
X8039711Y-13409656D01*
X8025426Y-13438227D01*
X7996854Y-13466799D01*
X7953997Y-13481084D01*
X7882568Y-13481084D01*
X8182568Y-13481084D02*
X8182568Y-13281084D01*
X8182568Y-13338227D02*
X8196854Y-13309656D01*
X8211140Y-13295370D01*
X8239711Y-13281084D01*
X8268283Y-13281084D01*
X8368283Y-13481084D02*
X8368283Y-13281084D01*
X8368283Y-13181084D02*
X8353997Y-13195370D01*
X8368283Y-13209656D01*
X8382568Y-13195370D01*
X8368283Y-13181084D01*
X8368283Y-13209656D01*
X8553997Y-13481084D02*
X8525426Y-13466799D01*
X8511140Y-13438227D01*
X8511140Y-13181084D01*
X8711140Y-13481084D02*
X8682568Y-13466799D01*
X8668283Y-13438227D01*
X8668283Y-13181084D01*
X9053997Y-13481084D02*
X9053997Y-13181084D01*
X9153997Y-13395370D01*
X9253997Y-13181084D01*
X9253997Y-13481084D01*
X9525426Y-13481084D02*
X9525426Y-13323941D01*
X9511140Y-13295370D01*
X9482568Y-13281084D01*
X9425426Y-13281084D01*
X9396854Y-13295370D01*
X9525426Y-13466799D02*
X9496854Y-13481084D01*
X9425426Y-13481084D01*
X9396854Y-13466799D01*
X9382568Y-13438227D01*
X9382568Y-13409656D01*
X9396854Y-13381084D01*
X9425426Y-13366799D01*
X9496854Y-13366799D01*
X9525426Y-13352513D01*
X9668283Y-13281084D02*
X9668283Y-13581084D01*
X9668283Y-13295370D02*
X9696854Y-13281084D01*
X9753997Y-13281084D01*
X9782568Y-13295370D01*
X9796854Y-13309656D01*
X9811140Y-13338227D01*
X9811140Y-13423941D01*
X9796854Y-13452513D01*
X9782568Y-13466799D01*
X9753997Y-13481084D01*
X9696854Y-13481084D01*
X9668283Y-13466799D01*
X9939711Y-13452513D02*
X9953997Y-13466799D01*
X9939711Y-13481084D01*
X9925426Y-13466799D01*
X9939711Y-13452513D01*
X9939711Y-13481084D01*
X9939711Y-13295370D02*
X9953997Y-13309656D01*
X9939711Y-13323941D01*
X9925426Y-13309656D01*
X9939711Y-13295370D01*
X9939711Y-13323941D01*
X7526140Y-13940370D02*
X7596140Y-14010370D01*
X7596140Y-13940370D02*
X7526140Y-14010370D01*
X7939711Y-13811084D02*
X7968283Y-13811084D01*
X7996854Y-13825370D01*
X8011140Y-13839656D01*
X8025426Y-13868227D01*
X8039711Y-13925370D01*
X8039711Y-13996799D01*
X8025426Y-14053941D01*
X8011140Y-14082513D01*
X7996854Y-14096799D01*
X7968283Y-14111084D01*
X7939711Y-14111084D01*
X7911140Y-14096799D01*
X7896854Y-14082513D01*
X7882568Y-14053941D01*
X7868283Y-13996799D01*
X7868283Y-13925370D01*
X7882568Y-13868227D01*
X7896854Y-13839656D01*
X7911140Y-13825370D01*
X7939711Y-13811084D01*
X8168283Y-14082513D02*
X8182568Y-14096799D01*
X8168283Y-14111084D01*
X8153997Y-14096799D01*
X8168283Y-14082513D01*
X8168283Y-14111084D01*
X8282568Y-13811084D02*
X8482568Y-13811084D01*
X8353997Y-14111084D01*
X8653997Y-13811084D02*
X8682568Y-13811084D01*
X8711140Y-13825370D01*
X8725426Y-13839656D01*
X8739711Y-13868227D01*
X8753997Y-13925370D01*
X8753997Y-13996799D01*
X8739711Y-14053941D01*
X8725426Y-14082513D01*
X8711140Y-14096799D01*
X8682568Y-14111084D01*
X8653997Y-14111084D01*
X8625426Y-14096799D01*
X8611140Y-14082513D01*
X8596854Y-14053941D01*
X8582568Y-13996799D01*
X8582568Y-13925370D01*
X8596854Y-13868227D01*
X8611140Y-13839656D01*
X8625426Y-13825370D01*
X8653997Y-13811084D01*
X8882568Y-14111084D02*
X8882568Y-13911084D01*
X8882568Y-13939656D02*
X8896854Y-13925370D01*
X8925426Y-13911084D01*
X8968283Y-13911084D01*
X8996854Y-13925370D01*
X9011140Y-13953941D01*
X9011140Y-14111084D01*
X9011140Y-13953941D02*
X9025426Y-13925370D01*
X9053997Y-13911084D01*
X9096854Y-13911084D01*
X9125426Y-13925370D01*
X9139711Y-13953941D01*
X9139711Y-14111084D01*
X9282568Y-14111084D02*
X9282568Y-13911084D01*
X9282568Y-13939656D02*
X9296854Y-13925370D01*
X9325426Y-13911084D01*
X9368283Y-13911084D01*
X9396854Y-13925370D01*
X9411140Y-13953941D01*
X9411140Y-14111084D01*
X9411140Y-13953941D02*
X9425426Y-13925370D01*
X9453997Y-13911084D01*
X9496854Y-13911084D01*
X9525426Y-13925370D01*
X9539711Y-13953941D01*
X9539711Y-14111084D01*
X10125426Y-13796799D02*
X9868283Y-14182513D01*
X10511140Y-13811084D02*
X10539711Y-13811084D01*
X10568283Y-13825370D01*
X10582568Y-13839656D01*
X10596854Y-13868227D01*
X10611140Y-13925370D01*
X10611140Y-13996799D01*
X10596854Y-14053941D01*
X10582568Y-14082513D01*
X10568283Y-14096799D01*
X10539711Y-14111084D01*
X10511140Y-14111084D01*
X10482568Y-14096799D01*
X10468283Y-14082513D01*
X10453997Y-14053941D01*
X10439711Y-13996799D01*
X10439711Y-13925370D01*
X10453997Y-13868227D01*
X10468283Y-13839656D01*
X10482568Y-13825370D01*
X10511140Y-13811084D01*
X10739711Y-14082513D02*
X10753997Y-14096799D01*
X10739711Y-14111084D01*
X10725426Y-14096799D01*
X10739711Y-14082513D01*
X10739711Y-14111084D01*
X10939711Y-13811084D02*
X10968283Y-13811084D01*
X10996854Y-13825370D01*
X11011140Y-13839656D01*
X11025426Y-13868227D01*
X11039711Y-13925370D01*
X11039711Y-13996799D01*
X11025426Y-14053941D01*
X11011140Y-14082513D01*
X10996854Y-14096799D01*
X10968283Y-14111084D01*
X10939711Y-14111084D01*
X10911140Y-14096799D01*
X10896854Y-14082513D01*
X10882568Y-14053941D01*
X10868283Y-13996799D01*
X10868283Y-13925370D01*
X10882568Y-13868227D01*
X10896854Y-13839656D01*
X10911140Y-13825370D01*
X10939711Y-13811084D01*
X11153997Y-13839656D02*
X11168283Y-13825370D01*
X11196854Y-13811084D01*
X11268283Y-13811084D01*
X11296854Y-13825370D01*
X11311140Y-13839656D01*
X11325426Y-13868227D01*
X11325426Y-13896799D01*
X11311140Y-13939656D01*
X11139711Y-14111084D01*
X11325426Y-14111084D01*
X11496854Y-13939656D02*
X11468283Y-13925370D01*
X11453997Y-13911084D01*
X11439711Y-13882513D01*
X11439711Y-13868227D01*
X11453997Y-13839656D01*
X11468283Y-13825370D01*
X11496854Y-13811084D01*
X11553997Y-13811084D01*
X11582568Y-13825370D01*
X11596854Y-13839656D01*
X11611140Y-13868227D01*
X11611140Y-13882513D01*
X11596854Y-13911084D01*
X11582568Y-13925370D01*
X11553997Y-13939656D01*
X11496854Y-13939656D01*
X11468283Y-13953941D01*
X11453997Y-13968227D01*
X11439711Y-13996799D01*
X11439711Y-14053941D01*
X11453997Y-14082513D01*
X11468283Y-14096799D01*
X11496854Y-14111084D01*
X11553997Y-14111084D01*
X11582568Y-14096799D01*
X11596854Y-14082513D01*
X11611140Y-14053941D01*
X11611140Y-13996799D01*
X11596854Y-13968227D01*
X11582568Y-13953941D01*
X11553997Y-13939656D01*
X11725426Y-13811084D02*
X11725426Y-13868227D01*
X11839711Y-13811084D02*
X11839711Y-13868227D01*
X12282568Y-14225370D02*
X12268283Y-14211084D01*
X12239711Y-14168227D01*
X12225426Y-14139656D01*
X12211140Y-14096799D01*
X12196854Y-14025370D01*
X12196854Y-13968227D01*
X12211140Y-13896799D01*
X12225426Y-13853941D01*
X12239711Y-13825370D01*
X12268283Y-13782513D01*
X12282568Y-13768227D01*
X12382568Y-13839656D02*
X12396854Y-13825370D01*
X12425426Y-13811084D01*
X12496854Y-13811084D01*
X12525426Y-13825370D01*
X12539711Y-13839656D01*
X12553997Y-13868227D01*
X12553997Y-13896799D01*
X12539711Y-13939656D01*
X12368283Y-14111084D01*
X12553997Y-14111084D01*
X12911140Y-14111084D02*
X12911140Y-13811084D01*
X13039711Y-14111084D02*
X13039711Y-13953941D01*
X13025426Y-13925370D01*
X12996854Y-13911084D01*
X12953997Y-13911084D01*
X12925426Y-13925370D01*
X12911140Y-13939656D01*
X13225426Y-14111084D02*
X13196854Y-14096799D01*
X13182568Y-14082513D01*
X13168283Y-14053941D01*
X13168283Y-13968227D01*
X13182568Y-13939656D01*
X13196854Y-13925370D01*
X13225426Y-13911084D01*
X13268283Y-13911084D01*
X13296854Y-13925370D01*
X13311140Y-13939656D01*
X13325426Y-13968227D01*
X13325426Y-14053941D01*
X13311140Y-14082513D01*
X13296854Y-14096799D01*
X13268283Y-14111084D01*
X13225426Y-14111084D01*
X13496854Y-14111084D02*
X13468283Y-14096799D01*
X13453997Y-14068227D01*
X13453997Y-13811084D01*
X13725426Y-14096799D02*
X13696854Y-14111084D01*
X13639711Y-14111084D01*
X13611140Y-14096799D01*
X13596854Y-14068227D01*
X13596854Y-13953941D01*
X13611140Y-13925370D01*
X13639711Y-13911084D01*
X13696854Y-13911084D01*
X13725426Y-13925370D01*
X13739711Y-13953941D01*
X13739711Y-13982513D01*
X13596854Y-14011084D01*
X13853997Y-14096799D02*
X13882568Y-14111084D01*
X13939711Y-14111084D01*
X13968283Y-14096799D01*
X13982568Y-14068227D01*
X13982568Y-14053941D01*
X13968283Y-14025370D01*
X13939711Y-14011084D01*
X13896854Y-14011084D01*
X13868283Y-13996799D01*
X13853997Y-13968227D01*
X13853997Y-13953941D01*
X13868283Y-13925370D01*
X13896854Y-13911084D01*
X13939711Y-13911084D01*
X13968283Y-13925370D01*
X14082568Y-14225370D02*
X14096854Y-14211084D01*
X14125426Y-14168227D01*
X14139711Y-14139656D01*
X14153997Y-14096799D01*
X14168283Y-14025370D01*
X14168283Y-13968227D01*
X14153997Y-13896799D01*
X14139711Y-13853941D01*
X14125426Y-13825370D01*
X14096854Y-13782513D01*
X14082568Y-13768227D01*
X7596140Y-14371370D02*
G75*
G03*
X7596140Y-14371370I-50000J0D01*
G01*
X8039711Y-14507084D02*
X7868283Y-14507084D01*
X7953997Y-14507084D02*
X7953997Y-14207084D01*
X7925426Y-14249941D01*
X7896854Y-14278513D01*
X7868283Y-14292799D01*
X8168283Y-14478513D02*
X8182568Y-14492799D01*
X8168283Y-14507084D01*
X8153997Y-14492799D01*
X8168283Y-14478513D01*
X8168283Y-14507084D01*
X8368283Y-14207084D02*
X8396854Y-14207084D01*
X8425426Y-14221370D01*
X8439711Y-14235656D01*
X8453997Y-14264227D01*
X8468283Y-14321370D01*
X8468283Y-14392799D01*
X8453997Y-14449941D01*
X8439711Y-14478513D01*
X8425426Y-14492799D01*
X8396854Y-14507084D01*
X8368283Y-14507084D01*
X8339711Y-14492799D01*
X8325426Y-14478513D01*
X8311140Y-14449941D01*
X8296854Y-14392799D01*
X8296854Y-14321370D01*
X8311140Y-14264227D01*
X8325426Y-14235656D01*
X8339711Y-14221370D01*
X8368283Y-14207084D01*
X8653997Y-14207084D02*
X8682568Y-14207084D01*
X8711140Y-14221370D01*
X8725426Y-14235656D01*
X8739711Y-14264227D01*
X8753997Y-14321370D01*
X8753997Y-14392799D01*
X8739711Y-14449941D01*
X8725426Y-14478513D01*
X8711140Y-14492799D01*
X8682568Y-14507084D01*
X8653997Y-14507084D01*
X8625426Y-14492799D01*
X8611140Y-14478513D01*
X8596854Y-14449941D01*
X8582568Y-14392799D01*
X8582568Y-14321370D01*
X8596854Y-14264227D01*
X8611140Y-14235656D01*
X8625426Y-14221370D01*
X8653997Y-14207084D01*
X8882568Y-14507084D02*
X8882568Y-14307084D01*
X8882568Y-14335656D02*
X8896854Y-14321370D01*
X8925426Y-14307084D01*
X8968283Y-14307084D01*
X8996854Y-14321370D01*
X9011140Y-14349941D01*
X9011140Y-14507084D01*
X9011140Y-14349941D02*
X9025426Y-14321370D01*
X9053997Y-14307084D01*
X9096854Y-14307084D01*
X9125426Y-14321370D01*
X9139711Y-14349941D01*
X9139711Y-14507084D01*
X9282568Y-14507084D02*
X9282568Y-14307084D01*
X9282568Y-14335656D02*
X9296854Y-14321370D01*
X9325426Y-14307084D01*
X9368283Y-14307084D01*
X9396854Y-14321370D01*
X9411140Y-14349941D01*
X9411140Y-14507084D01*
X9411140Y-14349941D02*
X9425426Y-14321370D01*
X9453997Y-14307084D01*
X9496854Y-14307084D01*
X9525426Y-14321370D01*
X9539711Y-14349941D01*
X9539711Y-14507084D01*
X10125426Y-14192799D02*
X9868283Y-14578513D01*
X10511140Y-14207084D02*
X10539711Y-14207084D01*
X10568283Y-14221370D01*
X10582568Y-14235656D01*
X10596854Y-14264227D01*
X10611140Y-14321370D01*
X10611140Y-14392799D01*
X10596854Y-14449941D01*
X10582568Y-14478513D01*
X10568283Y-14492799D01*
X10539711Y-14507084D01*
X10511140Y-14507084D01*
X10482568Y-14492799D01*
X10468283Y-14478513D01*
X10453997Y-14449941D01*
X10439711Y-14392799D01*
X10439711Y-14321370D01*
X10453997Y-14264227D01*
X10468283Y-14235656D01*
X10482568Y-14221370D01*
X10511140Y-14207084D01*
X10739711Y-14478513D02*
X10753997Y-14492799D01*
X10739711Y-14507084D01*
X10725426Y-14492799D01*
X10739711Y-14478513D01*
X10739711Y-14507084D01*
X10939711Y-14207084D02*
X10968283Y-14207084D01*
X10996854Y-14221370D01*
X11011140Y-14235656D01*
X11025426Y-14264227D01*
X11039711Y-14321370D01*
X11039711Y-14392799D01*
X11025426Y-14449941D01*
X11011140Y-14478513D01*
X10996854Y-14492799D01*
X10968283Y-14507084D01*
X10939711Y-14507084D01*
X10911140Y-14492799D01*
X10896854Y-14478513D01*
X10882568Y-14449941D01*
X10868283Y-14392799D01*
X10868283Y-14321370D01*
X10882568Y-14264227D01*
X10896854Y-14235656D01*
X10911140Y-14221370D01*
X10939711Y-14207084D01*
X11139711Y-14207084D02*
X11325426Y-14207084D01*
X11225426Y-14321370D01*
X11268283Y-14321370D01*
X11296854Y-14335656D01*
X11311140Y-14349941D01*
X11325426Y-14378513D01*
X11325426Y-14449941D01*
X11311140Y-14478513D01*
X11296854Y-14492799D01*
X11268283Y-14507084D01*
X11182568Y-14507084D01*
X11153997Y-14492799D01*
X11139711Y-14478513D01*
X11468283Y-14507084D02*
X11525426Y-14507084D01*
X11553997Y-14492799D01*
X11568283Y-14478513D01*
X11596854Y-14435656D01*
X11611140Y-14378513D01*
X11611140Y-14264227D01*
X11596854Y-14235656D01*
X11582568Y-14221370D01*
X11553997Y-14207084D01*
X11496854Y-14207084D01*
X11468283Y-14221370D01*
X11453997Y-14235656D01*
X11439711Y-14264227D01*
X11439711Y-14335656D01*
X11453997Y-14364227D01*
X11468283Y-14378513D01*
X11496854Y-14392799D01*
X11553997Y-14392799D01*
X11582568Y-14378513D01*
X11596854Y-14364227D01*
X11611140Y-14335656D01*
X11725426Y-14207084D02*
X11725426Y-14264227D01*
X11839711Y-14207084D02*
X11839711Y-14264227D01*
X12282568Y-14621370D02*
X12268283Y-14607084D01*
X12239711Y-14564227D01*
X12225426Y-14535656D01*
X12211140Y-14492799D01*
X12196854Y-14421370D01*
X12196854Y-14364227D01*
X12211140Y-14292799D01*
X12225426Y-14249941D01*
X12239711Y-14221370D01*
X12268283Y-14178513D01*
X12282568Y-14164227D01*
X12382568Y-14235656D02*
X12396854Y-14221370D01*
X12425426Y-14207084D01*
X12496854Y-14207084D01*
X12525426Y-14221370D01*
X12539711Y-14235656D01*
X12553997Y-14264227D01*
X12553997Y-14292799D01*
X12539711Y-14335656D01*
X12368283Y-14507084D01*
X12553997Y-14507084D01*
X12911140Y-14507084D02*
X12911140Y-14207084D01*
X13039711Y-14507084D02*
X13039711Y-14349941D01*
X13025426Y-14321370D01*
X12996854Y-14307084D01*
X12953997Y-14307084D01*
X12925426Y-14321370D01*
X12911140Y-14335656D01*
X13225426Y-14507084D02*
X13196854Y-14492799D01*
X13182568Y-14478513D01*
X13168283Y-14449941D01*
X13168283Y-14364227D01*
X13182568Y-14335656D01*
X13196854Y-14321370D01*
X13225426Y-14307084D01*
X13268283Y-14307084D01*
X13296854Y-14321370D01*
X13311140Y-14335656D01*
X13325426Y-14364227D01*
X13325426Y-14449941D01*
X13311140Y-14478513D01*
X13296854Y-14492799D01*
X13268283Y-14507084D01*
X13225426Y-14507084D01*
X13496854Y-14507084D02*
X13468283Y-14492799D01*
X13453997Y-14464227D01*
X13453997Y-14207084D01*
X13725426Y-14492799D02*
X13696854Y-14507084D01*
X13639711Y-14507084D01*
X13611140Y-14492799D01*
X13596854Y-14464227D01*
X13596854Y-14349941D01*
X13611140Y-14321370D01*
X13639711Y-14307084D01*
X13696854Y-14307084D01*
X13725426Y-14321370D01*
X13739711Y-14349941D01*
X13739711Y-14378513D01*
X13596854Y-14407084D01*
X13853997Y-14492799D02*
X13882568Y-14507084D01*
X13939711Y-14507084D01*
X13968283Y-14492799D01*
X13982568Y-14464227D01*
X13982568Y-14449941D01*
X13968283Y-14421370D01*
X13939711Y-14407084D01*
X13896854Y-14407084D01*
X13868283Y-14392799D01*
X13853997Y-14364227D01*
X13853997Y-14349941D01*
X13868283Y-14321370D01*
X13896854Y-14307084D01*
X13939711Y-14307084D01*
X13968283Y-14321370D01*
X14082568Y-14621370D02*
X14096854Y-14607084D01*
X14125426Y-14564227D01*
X14139711Y-14535656D01*
X14153997Y-14492799D01*
X14168283Y-14421370D01*
X14168283Y-14364227D01*
X14153997Y-14292799D01*
X14139711Y-14249941D01*
X14125426Y-14221370D01*
X14096854Y-14178513D01*
X14082568Y-14164227D01*
X7534140Y-14705370D02*
X7534140Y-14829370D01*
X7472140Y-14767370D02*
X7596140Y-14767370D01*
X8039711Y-14903084D02*
X7868283Y-14903084D01*
X7953997Y-14903084D02*
X7953997Y-14603084D01*
X7925426Y-14645941D01*
X7896854Y-14674513D01*
X7868283Y-14688799D01*
X8168283Y-14874513D02*
X8182568Y-14888799D01*
X8168283Y-14903084D01*
X8153997Y-14888799D01*
X8168283Y-14874513D01*
X8168283Y-14903084D01*
X8296854Y-14631656D02*
X8311140Y-14617370D01*
X8339711Y-14603084D01*
X8411140Y-14603084D01*
X8439711Y-14617370D01*
X8453997Y-14631656D01*
X8468283Y-14660227D01*
X8468283Y-14688799D01*
X8453997Y-14731656D01*
X8282568Y-14903084D01*
X8468283Y-14903084D01*
X8725426Y-14703084D02*
X8725426Y-14903084D01*
X8653997Y-14588799D02*
X8582568Y-14803084D01*
X8768283Y-14803084D01*
X8882568Y-14903084D02*
X8882568Y-14703084D01*
X8882568Y-14731656D02*
X8896854Y-14717370D01*
X8925426Y-14703084D01*
X8968283Y-14703084D01*
X8996854Y-14717370D01*
X9011140Y-14745941D01*
X9011140Y-14903084D01*
X9011140Y-14745941D02*
X9025426Y-14717370D01*
X9053997Y-14703084D01*
X9096854Y-14703084D01*
X9125426Y-14717370D01*
X9139711Y-14745941D01*
X9139711Y-14903084D01*
X9282568Y-14903084D02*
X9282568Y-14703084D01*
X9282568Y-14731656D02*
X9296854Y-14717370D01*
X9325426Y-14703084D01*
X9368283Y-14703084D01*
X9396854Y-14717370D01*
X9411140Y-14745941D01*
X9411140Y-14903084D01*
X9411140Y-14745941D02*
X9425426Y-14717370D01*
X9453997Y-14703084D01*
X9496854Y-14703084D01*
X9525426Y-14717370D01*
X9539711Y-14745941D01*
X9539711Y-14903084D01*
X10125426Y-14588799D02*
X9868283Y-14974513D01*
X10511140Y-14603084D02*
X10539711Y-14603084D01*
X10568283Y-14617370D01*
X10582568Y-14631656D01*
X10596854Y-14660227D01*
X10611140Y-14717370D01*
X10611140Y-14788799D01*
X10596854Y-14845941D01*
X10582568Y-14874513D01*
X10568283Y-14888799D01*
X10539711Y-14903084D01*
X10511140Y-14903084D01*
X10482568Y-14888799D01*
X10468283Y-14874513D01*
X10453997Y-14845941D01*
X10439711Y-14788799D01*
X10439711Y-14717370D01*
X10453997Y-14660227D01*
X10468283Y-14631656D01*
X10482568Y-14617370D01*
X10511140Y-14603084D01*
X10739711Y-14874513D02*
X10753997Y-14888799D01*
X10739711Y-14903084D01*
X10725426Y-14888799D01*
X10739711Y-14874513D01*
X10739711Y-14903084D01*
X10939711Y-14603084D02*
X10968283Y-14603084D01*
X10996854Y-14617370D01*
X11011140Y-14631656D01*
X11025426Y-14660227D01*
X11039711Y-14717370D01*
X11039711Y-14788799D01*
X11025426Y-14845941D01*
X11011140Y-14874513D01*
X10996854Y-14888799D01*
X10968283Y-14903084D01*
X10939711Y-14903084D01*
X10911140Y-14888799D01*
X10896854Y-14874513D01*
X10882568Y-14845941D01*
X10868283Y-14788799D01*
X10868283Y-14717370D01*
X10882568Y-14660227D01*
X10896854Y-14631656D01*
X10911140Y-14617370D01*
X10939711Y-14603084D01*
X11296854Y-14703084D02*
X11296854Y-14903084D01*
X11225426Y-14588799D02*
X11153997Y-14803084D01*
X11339711Y-14803084D01*
X11468283Y-14903084D02*
X11525426Y-14903084D01*
X11553997Y-14888799D01*
X11568283Y-14874513D01*
X11596854Y-14831656D01*
X11611140Y-14774513D01*
X11611140Y-14660227D01*
X11596854Y-14631656D01*
X11582568Y-14617370D01*
X11553997Y-14603084D01*
X11496854Y-14603084D01*
X11468283Y-14617370D01*
X11453997Y-14631656D01*
X11439711Y-14660227D01*
X11439711Y-14731656D01*
X11453997Y-14760227D01*
X11468283Y-14774513D01*
X11496854Y-14788799D01*
X11553997Y-14788799D01*
X11582568Y-14774513D01*
X11596854Y-14760227D01*
X11611140Y-14731656D01*
X11725426Y-14603084D02*
X11725426Y-14660227D01*
X11839711Y-14603084D02*
X11839711Y-14660227D01*
X12282568Y-15017370D02*
X12268283Y-15003084D01*
X12239711Y-14960227D01*
X12225426Y-14931656D01*
X12211140Y-14888799D01*
X12196854Y-14817370D01*
X12196854Y-14760227D01*
X12211140Y-14688799D01*
X12225426Y-14645941D01*
X12239711Y-14617370D01*
X12268283Y-14574513D01*
X12282568Y-14560227D01*
X12525426Y-14703084D02*
X12525426Y-14903084D01*
X12453997Y-14588799D02*
X12382568Y-14803084D01*
X12568283Y-14803084D01*
X12911140Y-14903084D02*
X12911140Y-14603084D01*
X13039711Y-14903084D02*
X13039711Y-14745941D01*
X13025426Y-14717370D01*
X12996854Y-14703084D01*
X12953997Y-14703084D01*
X12925426Y-14717370D01*
X12911140Y-14731656D01*
X13225426Y-14903084D02*
X13196854Y-14888799D01*
X13182568Y-14874513D01*
X13168283Y-14845941D01*
X13168283Y-14760227D01*
X13182568Y-14731656D01*
X13196854Y-14717370D01*
X13225426Y-14703084D01*
X13268283Y-14703084D01*
X13296854Y-14717370D01*
X13311140Y-14731656D01*
X13325426Y-14760227D01*
X13325426Y-14845941D01*
X13311140Y-14874513D01*
X13296854Y-14888799D01*
X13268283Y-14903084D01*
X13225426Y-14903084D01*
X13496854Y-14903084D02*
X13468283Y-14888799D01*
X13453997Y-14860227D01*
X13453997Y-14603084D01*
X13725426Y-14888799D02*
X13696854Y-14903084D01*
X13639711Y-14903084D01*
X13611140Y-14888799D01*
X13596854Y-14860227D01*
X13596854Y-14745941D01*
X13611140Y-14717370D01*
X13639711Y-14703084D01*
X13696854Y-14703084D01*
X13725426Y-14717370D01*
X13739711Y-14745941D01*
X13739711Y-14774513D01*
X13596854Y-14803084D01*
X13853997Y-14888799D02*
X13882568Y-14903084D01*
X13939711Y-14903084D01*
X13968283Y-14888799D01*
X13982568Y-14860227D01*
X13982568Y-14845941D01*
X13968283Y-14817370D01*
X13939711Y-14803084D01*
X13896854Y-14803084D01*
X13868283Y-14788799D01*
X13853997Y-14760227D01*
X13853997Y-14745941D01*
X13868283Y-14717370D01*
X13896854Y-14703084D01*
X13939711Y-14703084D01*
X13968283Y-14717370D01*
X14082568Y-15017370D02*
X14096854Y-15003084D01*
X14125426Y-14960227D01*
X14139711Y-14931656D01*
X14153997Y-14888799D01*
X14168283Y-14817370D01*
X14168283Y-14760227D01*
X14153997Y-14688799D01*
X14139711Y-14645941D01*
X14125426Y-14617370D01*
X14096854Y-14574513D01*
X14082568Y-14560227D01*
X7574173Y-15216404D02*
X7574173Y-15110337D01*
X7468106Y-15110337D01*
X7468106Y-15216404D01*
X7574173Y-15216404D01*
X8039711Y-15299084D02*
X7868283Y-15299084D01*
X7953997Y-15299084D02*
X7953997Y-14999084D01*
X7925426Y-15041941D01*
X7896854Y-15070513D01*
X7868283Y-15084799D01*
X8168283Y-15270513D02*
X8182568Y-15284799D01*
X8168283Y-15299084D01*
X8153997Y-15284799D01*
X8168283Y-15270513D01*
X8168283Y-15299084D01*
X8453997Y-14999084D02*
X8311140Y-14999084D01*
X8296854Y-15141941D01*
X8311140Y-15127656D01*
X8339711Y-15113370D01*
X8411140Y-15113370D01*
X8439711Y-15127656D01*
X8453997Y-15141941D01*
X8468283Y-15170513D01*
X8468283Y-15241941D01*
X8453997Y-15270513D01*
X8439711Y-15284799D01*
X8411140Y-15299084D01*
X8339711Y-15299084D01*
X8311140Y-15284799D01*
X8296854Y-15270513D01*
X8653997Y-14999084D02*
X8682568Y-14999084D01*
X8711140Y-15013370D01*
X8725426Y-15027656D01*
X8739711Y-15056227D01*
X8753997Y-15113370D01*
X8753997Y-15184799D01*
X8739711Y-15241941D01*
X8725426Y-15270513D01*
X8711140Y-15284799D01*
X8682568Y-15299084D01*
X8653997Y-15299084D01*
X8625426Y-15284799D01*
X8611140Y-15270513D01*
X8596854Y-15241941D01*
X8582568Y-15184799D01*
X8582568Y-15113370D01*
X8596854Y-15056227D01*
X8611140Y-15027656D01*
X8625426Y-15013370D01*
X8653997Y-14999084D01*
X8882568Y-15299084D02*
X8882568Y-15099084D01*
X8882568Y-15127656D02*
X8896854Y-15113370D01*
X8925426Y-15099084D01*
X8968283Y-15099084D01*
X8996854Y-15113370D01*
X9011140Y-15141941D01*
X9011140Y-15299084D01*
X9011140Y-15141941D02*
X9025426Y-15113370D01*
X9053997Y-15099084D01*
X9096854Y-15099084D01*
X9125426Y-15113370D01*
X9139711Y-15141941D01*
X9139711Y-15299084D01*
X9282568Y-15299084D02*
X9282568Y-15099084D01*
X9282568Y-15127656D02*
X9296854Y-15113370D01*
X9325426Y-15099084D01*
X9368283Y-15099084D01*
X9396854Y-15113370D01*
X9411140Y-15141941D01*
X9411140Y-15299084D01*
X9411140Y-15141941D02*
X9425426Y-15113370D01*
X9453997Y-15099084D01*
X9496854Y-15099084D01*
X9525426Y-15113370D01*
X9539711Y-15141941D01*
X9539711Y-15299084D01*
X10125426Y-14984799D02*
X9868283Y-15370513D01*
X10511140Y-14999084D02*
X10539711Y-14999084D01*
X10568283Y-15013370D01*
X10582568Y-15027656D01*
X10596854Y-15056227D01*
X10611140Y-15113370D01*
X10611140Y-15184799D01*
X10596854Y-15241941D01*
X10582568Y-15270513D01*
X10568283Y-15284799D01*
X10539711Y-15299084D01*
X10511140Y-15299084D01*
X10482568Y-15284799D01*
X10468283Y-15270513D01*
X10453997Y-15241941D01*
X10439711Y-15184799D01*
X10439711Y-15113370D01*
X10453997Y-15056227D01*
X10468283Y-15027656D01*
X10482568Y-15013370D01*
X10511140Y-14999084D01*
X10739711Y-15270513D02*
X10753997Y-15284799D01*
X10739711Y-15299084D01*
X10725426Y-15284799D01*
X10739711Y-15270513D01*
X10739711Y-15299084D01*
X10939711Y-14999084D02*
X10968283Y-14999084D01*
X10996854Y-15013370D01*
X11011140Y-15027656D01*
X11025426Y-15056227D01*
X11039711Y-15113370D01*
X11039711Y-15184799D01*
X11025426Y-15241941D01*
X11011140Y-15270513D01*
X10996854Y-15284799D01*
X10968283Y-15299084D01*
X10939711Y-15299084D01*
X10911140Y-15284799D01*
X10896854Y-15270513D01*
X10882568Y-15241941D01*
X10868283Y-15184799D01*
X10868283Y-15113370D01*
X10882568Y-15056227D01*
X10896854Y-15027656D01*
X10911140Y-15013370D01*
X10939711Y-14999084D01*
X11311140Y-14999084D02*
X11168283Y-14999084D01*
X11153997Y-15141941D01*
X11168283Y-15127656D01*
X11196854Y-15113370D01*
X11268283Y-15113370D01*
X11296854Y-15127656D01*
X11311140Y-15141941D01*
X11325426Y-15170513D01*
X11325426Y-15241941D01*
X11311140Y-15270513D01*
X11296854Y-15284799D01*
X11268283Y-15299084D01*
X11196854Y-15299084D01*
X11168283Y-15284799D01*
X11153997Y-15270513D01*
X11468283Y-15299084D02*
X11525426Y-15299084D01*
X11553997Y-15284799D01*
X11568283Y-15270513D01*
X11596854Y-15227656D01*
X11611140Y-15170513D01*
X11611140Y-15056227D01*
X11596854Y-15027656D01*
X11582568Y-15013370D01*
X11553997Y-14999084D01*
X11496854Y-14999084D01*
X11468283Y-15013370D01*
X11453997Y-15027656D01*
X11439711Y-15056227D01*
X11439711Y-15127656D01*
X11453997Y-15156227D01*
X11468283Y-15170513D01*
X11496854Y-15184799D01*
X11553997Y-15184799D01*
X11582568Y-15170513D01*
X11596854Y-15156227D01*
X11611140Y-15127656D01*
X11725426Y-14999084D02*
X11725426Y-15056227D01*
X11839711Y-14999084D02*
X11839711Y-15056227D01*
X12282568Y-15413370D02*
X12268283Y-15399084D01*
X12239711Y-15356227D01*
X12225426Y-15327656D01*
X12211140Y-15284799D01*
X12196854Y-15213370D01*
X12196854Y-15156227D01*
X12211140Y-15084799D01*
X12225426Y-15041941D01*
X12239711Y-15013370D01*
X12268283Y-14970513D01*
X12282568Y-14956227D01*
X12553997Y-15299084D02*
X12382568Y-15299084D01*
X12468283Y-15299084D02*
X12468283Y-14999084D01*
X12439711Y-15041941D01*
X12411140Y-15070513D01*
X12382568Y-15084799D01*
X12739711Y-14999084D02*
X12768283Y-14999084D01*
X12796854Y-15013370D01*
X12811140Y-15027656D01*
X12825426Y-15056227D01*
X12839711Y-15113370D01*
X12839711Y-15184799D01*
X12825426Y-15241941D01*
X12811140Y-15270513D01*
X12796854Y-15284799D01*
X12768283Y-15299084D01*
X12739711Y-15299084D01*
X12711140Y-15284799D01*
X12696854Y-15270513D01*
X12682568Y-15241941D01*
X12668283Y-15184799D01*
X12668283Y-15113370D01*
X12682568Y-15056227D01*
X12696854Y-15027656D01*
X12711140Y-15013370D01*
X12739711Y-14999084D01*
X13196854Y-15299084D02*
X13196854Y-14999084D01*
X13325426Y-15299084D02*
X13325426Y-15141941D01*
X13311140Y-15113370D01*
X13282568Y-15099084D01*
X13239711Y-15099084D01*
X13211140Y-15113370D01*
X13196854Y-15127656D01*
X13511140Y-15299084D02*
X13482568Y-15284799D01*
X13468283Y-15270513D01*
X13453997Y-15241941D01*
X13453997Y-15156227D01*
X13468283Y-15127656D01*
X13482568Y-15113370D01*
X13511140Y-15099084D01*
X13553997Y-15099084D01*
X13582568Y-15113370D01*
X13596854Y-15127656D01*
X13611140Y-15156227D01*
X13611140Y-15241941D01*
X13596854Y-15270513D01*
X13582568Y-15284799D01*
X13553997Y-15299084D01*
X13511140Y-15299084D01*
X13782568Y-15299084D02*
X13753997Y-15284799D01*
X13739711Y-15256227D01*
X13739711Y-14999084D01*
X14011140Y-15284799D02*
X13982568Y-15299084D01*
X13925426Y-15299084D01*
X13896854Y-15284799D01*
X13882568Y-15256227D01*
X13882568Y-15141941D01*
X13896854Y-15113370D01*
X13925426Y-15099084D01*
X13982568Y-15099084D01*
X14011140Y-15113370D01*
X14025426Y-15141941D01*
X14025426Y-15170513D01*
X13882568Y-15199084D01*
X14139711Y-15284799D02*
X14168283Y-15299084D01*
X14225426Y-15299084D01*
X14253997Y-15284799D01*
X14268283Y-15256227D01*
X14268283Y-15241941D01*
X14253997Y-15213370D01*
X14225426Y-15199084D01*
X14182568Y-15199084D01*
X14153997Y-15184799D01*
X14139711Y-15156227D01*
X14139711Y-15141941D01*
X14153997Y-15113370D01*
X14182568Y-15099084D01*
X14225426Y-15099084D01*
X14253997Y-15113370D01*
X14368283Y-15413370D02*
X14382568Y-15399084D01*
X14411140Y-15356227D01*
X14425426Y-15327656D01*
X14439711Y-15284799D01*
X14453997Y-15213370D01*
X14453997Y-15156227D01*
X14439711Y-15084799D01*
X14425426Y-15041941D01*
X14411140Y-15013370D01*
X14382568Y-14970513D01*
X14368283Y-14956227D01*
X7518640Y-15636870D02*
X7596140Y-15559370D01*
X7518640Y-15481870D01*
X7441140Y-15559370D01*
X7518640Y-15636870D01*
X8039711Y-15695084D02*
X7868283Y-15695084D01*
X7953997Y-15695084D02*
X7953997Y-15395084D01*
X7925426Y-15437941D01*
X7896854Y-15466513D01*
X7868283Y-15480799D01*
X8168283Y-15666513D02*
X8182568Y-15680799D01*
X8168283Y-15695084D01*
X8153997Y-15680799D01*
X8168283Y-15666513D01*
X8168283Y-15695084D01*
X8453997Y-15395084D02*
X8311140Y-15395084D01*
X8296854Y-15537941D01*
X8311140Y-15523656D01*
X8339711Y-15509370D01*
X8411140Y-15509370D01*
X8439711Y-15523656D01*
X8453997Y-15537941D01*
X8468283Y-15566513D01*
X8468283Y-15637941D01*
X8453997Y-15666513D01*
X8439711Y-15680799D01*
X8411140Y-15695084D01*
X8339711Y-15695084D01*
X8311140Y-15680799D01*
X8296854Y-15666513D01*
X8739711Y-15395084D02*
X8596854Y-15395084D01*
X8582568Y-15537941D01*
X8596854Y-15523656D01*
X8625426Y-15509370D01*
X8696854Y-15509370D01*
X8725426Y-15523656D01*
X8739711Y-15537941D01*
X8753997Y-15566513D01*
X8753997Y-15637941D01*
X8739711Y-15666513D01*
X8725426Y-15680799D01*
X8696854Y-15695084D01*
X8625426Y-15695084D01*
X8596854Y-15680799D01*
X8582568Y-15666513D01*
X8882568Y-15695084D02*
X8882568Y-15495084D01*
X8882568Y-15523656D02*
X8896854Y-15509370D01*
X8925426Y-15495084D01*
X8968283Y-15495084D01*
X8996854Y-15509370D01*
X9011140Y-15537941D01*
X9011140Y-15695084D01*
X9011140Y-15537941D02*
X9025426Y-15509370D01*
X9053997Y-15495084D01*
X9096854Y-15495084D01*
X9125426Y-15509370D01*
X9139711Y-15537941D01*
X9139711Y-15695084D01*
X9282568Y-15695084D02*
X9282568Y-15495084D01*
X9282568Y-15523656D02*
X9296854Y-15509370D01*
X9325426Y-15495084D01*
X9368283Y-15495084D01*
X9396854Y-15509370D01*
X9411140Y-15537941D01*
X9411140Y-15695084D01*
X9411140Y-15537941D02*
X9425426Y-15509370D01*
X9453997Y-15495084D01*
X9496854Y-15495084D01*
X9525426Y-15509370D01*
X9539711Y-15537941D01*
X9539711Y-15695084D01*
X10125426Y-15380799D02*
X9868283Y-15766513D01*
X10511140Y-15395084D02*
X10539711Y-15395084D01*
X10568283Y-15409370D01*
X10582568Y-15423656D01*
X10596854Y-15452227D01*
X10611140Y-15509370D01*
X10611140Y-15580799D01*
X10596854Y-15637941D01*
X10582568Y-15666513D01*
X10568283Y-15680799D01*
X10539711Y-15695084D01*
X10511140Y-15695084D01*
X10482568Y-15680799D01*
X10468283Y-15666513D01*
X10453997Y-15637941D01*
X10439711Y-15580799D01*
X10439711Y-15509370D01*
X10453997Y-15452227D01*
X10468283Y-15423656D01*
X10482568Y-15409370D01*
X10511140Y-15395084D01*
X10739711Y-15666513D02*
X10753997Y-15680799D01*
X10739711Y-15695084D01*
X10725426Y-15680799D01*
X10739711Y-15666513D01*
X10739711Y-15695084D01*
X10939711Y-15395084D02*
X10968283Y-15395084D01*
X10996854Y-15409370D01*
X11011140Y-15423656D01*
X11025426Y-15452227D01*
X11039711Y-15509370D01*
X11039711Y-15580799D01*
X11025426Y-15637941D01*
X11011140Y-15666513D01*
X10996854Y-15680799D01*
X10968283Y-15695084D01*
X10939711Y-15695084D01*
X10911140Y-15680799D01*
X10896854Y-15666513D01*
X10882568Y-15637941D01*
X10868283Y-15580799D01*
X10868283Y-15509370D01*
X10882568Y-15452227D01*
X10896854Y-15423656D01*
X10911140Y-15409370D01*
X10939711Y-15395084D01*
X11296854Y-15395084D02*
X11239711Y-15395084D01*
X11211140Y-15409370D01*
X11196854Y-15423656D01*
X11168283Y-15466513D01*
X11153997Y-15523656D01*
X11153997Y-15637941D01*
X11168283Y-15666513D01*
X11182568Y-15680799D01*
X11211140Y-15695084D01*
X11268283Y-15695084D01*
X11296854Y-15680799D01*
X11311140Y-15666513D01*
X11325426Y-15637941D01*
X11325426Y-15566513D01*
X11311140Y-15537941D01*
X11296854Y-15523656D01*
X11268283Y-15509370D01*
X11211140Y-15509370D01*
X11182568Y-15523656D01*
X11168283Y-15537941D01*
X11153997Y-15566513D01*
X11611140Y-15695084D02*
X11439711Y-15695084D01*
X11525426Y-15695084D02*
X11525426Y-15395084D01*
X11496854Y-15437941D01*
X11468283Y-15466513D01*
X11439711Y-15480799D01*
X11725426Y-15395084D02*
X11725426Y-15452227D01*
X11839711Y-15395084D02*
X11839711Y-15452227D01*
X12282568Y-15809370D02*
X12268283Y-15795084D01*
X12239711Y-15752227D01*
X12225426Y-15723656D01*
X12211140Y-15680799D01*
X12196854Y-15609370D01*
X12196854Y-15552227D01*
X12211140Y-15480799D01*
X12225426Y-15437941D01*
X12239711Y-15409370D01*
X12268283Y-15366513D01*
X12282568Y-15352227D01*
X12525426Y-15395084D02*
X12468283Y-15395084D01*
X12439711Y-15409370D01*
X12425426Y-15423656D01*
X12396854Y-15466513D01*
X12382568Y-15523656D01*
X12382568Y-15637941D01*
X12396854Y-15666513D01*
X12411140Y-15680799D01*
X12439711Y-15695084D01*
X12496854Y-15695084D01*
X12525426Y-15680799D01*
X12539711Y-15666513D01*
X12553997Y-15637941D01*
X12553997Y-15566513D01*
X12539711Y-15537941D01*
X12525426Y-15523656D01*
X12496854Y-15509370D01*
X12439711Y-15509370D01*
X12411140Y-15523656D01*
X12396854Y-15537941D01*
X12382568Y-15566513D01*
X12911140Y-15695084D02*
X12911140Y-15395084D01*
X13039711Y-15695084D02*
X13039711Y-15537941D01*
X13025426Y-15509370D01*
X12996854Y-15495084D01*
X12953997Y-15495084D01*
X12925426Y-15509370D01*
X12911140Y-15523656D01*
X13225426Y-15695084D02*
X13196854Y-15680799D01*
X13182568Y-15666513D01*
X13168283Y-15637941D01*
X13168283Y-15552227D01*
X13182568Y-15523656D01*
X13196854Y-15509370D01*
X13225426Y-15495084D01*
X13268283Y-15495084D01*
X13296854Y-15509370D01*
X13311140Y-15523656D01*
X13325426Y-15552227D01*
X13325426Y-15637941D01*
X13311140Y-15666513D01*
X13296854Y-15680799D01*
X13268283Y-15695084D01*
X13225426Y-15695084D01*
X13496854Y-15695084D02*
X13468283Y-15680799D01*
X13453997Y-15652227D01*
X13453997Y-15395084D01*
X13725426Y-15680799D02*
X13696854Y-15695084D01*
X13639711Y-15695084D01*
X13611140Y-15680799D01*
X13596854Y-15652227D01*
X13596854Y-15537941D01*
X13611140Y-15509370D01*
X13639711Y-15495084D01*
X13696854Y-15495084D01*
X13725426Y-15509370D01*
X13739711Y-15537941D01*
X13739711Y-15566513D01*
X13596854Y-15595084D01*
X13853997Y-15680799D02*
X13882568Y-15695084D01*
X13939711Y-15695084D01*
X13968283Y-15680799D01*
X13982568Y-15652227D01*
X13982568Y-15637941D01*
X13968283Y-15609370D01*
X13939711Y-15595084D01*
X13896854Y-15595084D01*
X13868283Y-15580799D01*
X13853997Y-15552227D01*
X13853997Y-15537941D01*
X13868283Y-15509370D01*
X13896854Y-15495084D01*
X13939711Y-15495084D01*
X13968283Y-15509370D01*
X14082568Y-15809370D02*
X14096854Y-15795084D01*
X14125426Y-15752227D01*
X14139711Y-15723656D01*
X14153997Y-15680799D01*
X14168283Y-15609370D01*
X14168283Y-15552227D01*
X14153997Y-15480799D01*
X14139711Y-15437941D01*
X14125426Y-15409370D01*
X14096854Y-15366513D01*
X14082568Y-15352227D01*
X7413140Y-15863870D02*
X7596140Y-16046870D01*
X7596140Y-15863870D02*
X7413140Y-16046870D01*
X7596140Y-15955370D02*
G75*
G03*
X7596140Y-15955370I-91500J0D01*
G01*
X8039711Y-16091084D02*
X7868283Y-16091084D01*
X7953997Y-16091084D02*
X7953997Y-15791084D01*
X7925426Y-15833941D01*
X7896854Y-15862513D01*
X7868283Y-15876799D01*
X8168283Y-16062513D02*
X8182568Y-16076799D01*
X8168283Y-16091084D01*
X8153997Y-16076799D01*
X8168283Y-16062513D01*
X8168283Y-16091084D01*
X8353997Y-15919656D02*
X8325426Y-15905370D01*
X8311140Y-15891084D01*
X8296854Y-15862513D01*
X8296854Y-15848227D01*
X8311140Y-15819656D01*
X8325426Y-15805370D01*
X8353997Y-15791084D01*
X8411140Y-15791084D01*
X8439711Y-15805370D01*
X8453997Y-15819656D01*
X8468283Y-15848227D01*
X8468283Y-15862513D01*
X8453997Y-15891084D01*
X8439711Y-15905370D01*
X8411140Y-15919656D01*
X8353997Y-15919656D01*
X8325426Y-15933941D01*
X8311140Y-15948227D01*
X8296854Y-15976799D01*
X8296854Y-16033941D01*
X8311140Y-16062513D01*
X8325426Y-16076799D01*
X8353997Y-16091084D01*
X8411140Y-16091084D01*
X8439711Y-16076799D01*
X8453997Y-16062513D01*
X8468283Y-16033941D01*
X8468283Y-15976799D01*
X8453997Y-15948227D01*
X8439711Y-15933941D01*
X8411140Y-15919656D01*
X8568283Y-15791084D02*
X8753997Y-15791084D01*
X8653997Y-15905370D01*
X8696854Y-15905370D01*
X8725426Y-15919656D01*
X8739711Y-15933941D01*
X8753997Y-15962513D01*
X8753997Y-16033941D01*
X8739711Y-16062513D01*
X8725426Y-16076799D01*
X8696854Y-16091084D01*
X8611140Y-16091084D01*
X8582568Y-16076799D01*
X8568283Y-16062513D01*
X8882568Y-16091084D02*
X8882568Y-15891084D01*
X8882568Y-15919656D02*
X8896854Y-15905370D01*
X8925426Y-15891084D01*
X8968283Y-15891084D01*
X8996854Y-15905370D01*
X9011140Y-15933941D01*
X9011140Y-16091084D01*
X9011140Y-15933941D02*
X9025426Y-15905370D01*
X9053997Y-15891084D01*
X9096854Y-15891084D01*
X9125426Y-15905370D01*
X9139711Y-15933941D01*
X9139711Y-16091084D01*
X9282568Y-16091084D02*
X9282568Y-15891084D01*
X9282568Y-15919656D02*
X9296854Y-15905370D01*
X9325426Y-15891084D01*
X9368283Y-15891084D01*
X9396854Y-15905370D01*
X9411140Y-15933941D01*
X9411140Y-16091084D01*
X9411140Y-15933941D02*
X9425426Y-15905370D01*
X9453997Y-15891084D01*
X9496854Y-15891084D01*
X9525426Y-15905370D01*
X9539711Y-15933941D01*
X9539711Y-16091084D01*
X10125426Y-15776799D02*
X9868283Y-16162513D01*
X10511140Y-15791084D02*
X10539711Y-15791084D01*
X10568283Y-15805370D01*
X10582568Y-15819656D01*
X10596854Y-15848227D01*
X10611140Y-15905370D01*
X10611140Y-15976799D01*
X10596854Y-16033941D01*
X10582568Y-16062513D01*
X10568283Y-16076799D01*
X10539711Y-16091084D01*
X10511140Y-16091084D01*
X10482568Y-16076799D01*
X10468283Y-16062513D01*
X10453997Y-16033941D01*
X10439711Y-15976799D01*
X10439711Y-15905370D01*
X10453997Y-15848227D01*
X10468283Y-15819656D01*
X10482568Y-15805370D01*
X10511140Y-15791084D01*
X10739711Y-16062513D02*
X10753997Y-16076799D01*
X10739711Y-16091084D01*
X10725426Y-16076799D01*
X10739711Y-16062513D01*
X10739711Y-16091084D01*
X10939711Y-15791084D02*
X10968283Y-15791084D01*
X10996854Y-15805370D01*
X11011140Y-15819656D01*
X11025426Y-15848227D01*
X11039711Y-15905370D01*
X11039711Y-15976799D01*
X11025426Y-16033941D01*
X11011140Y-16062513D01*
X10996854Y-16076799D01*
X10968283Y-16091084D01*
X10939711Y-16091084D01*
X10911140Y-16076799D01*
X10896854Y-16062513D01*
X10882568Y-16033941D01*
X10868283Y-15976799D01*
X10868283Y-15905370D01*
X10882568Y-15848227D01*
X10896854Y-15819656D01*
X10911140Y-15805370D01*
X10939711Y-15791084D01*
X11139711Y-15791084D02*
X11339711Y-15791084D01*
X11211140Y-16091084D01*
X11439711Y-15819656D02*
X11453997Y-15805370D01*
X11482568Y-15791084D01*
X11553997Y-15791084D01*
X11582568Y-15805370D01*
X11596854Y-15819656D01*
X11611140Y-15848227D01*
X11611140Y-15876799D01*
X11596854Y-15919656D01*
X11425426Y-16091084D01*
X11611140Y-16091084D01*
X11725426Y-15791084D02*
X11725426Y-15848227D01*
X11839711Y-15791084D02*
X11839711Y-15848227D01*
X12282568Y-16205370D02*
X12268283Y-16191084D01*
X12239711Y-16148227D01*
X12225426Y-16119656D01*
X12211140Y-16076799D01*
X12196854Y-16005370D01*
X12196854Y-15948227D01*
X12211140Y-15876799D01*
X12225426Y-15833941D01*
X12239711Y-15805370D01*
X12268283Y-15762513D01*
X12282568Y-15748227D01*
X12553997Y-16091084D02*
X12382568Y-16091084D01*
X12468283Y-16091084D02*
X12468283Y-15791084D01*
X12439711Y-15833941D01*
X12411140Y-15862513D01*
X12382568Y-15876799D01*
X12668283Y-15819656D02*
X12682568Y-15805370D01*
X12711140Y-15791084D01*
X12782568Y-15791084D01*
X12811140Y-15805370D01*
X12825426Y-15819656D01*
X12839711Y-15848227D01*
X12839711Y-15876799D01*
X12825426Y-15919656D01*
X12653997Y-16091084D01*
X12839711Y-16091084D01*
X13196854Y-16091084D02*
X13196854Y-15791084D01*
X13325426Y-16091084D02*
X13325426Y-15933941D01*
X13311140Y-15905370D01*
X13282568Y-15891084D01*
X13239711Y-15891084D01*
X13211140Y-15905370D01*
X13196854Y-15919656D01*
X13511140Y-16091084D02*
X13482568Y-16076799D01*
X13468283Y-16062513D01*
X13453997Y-16033941D01*
X13453997Y-15948227D01*
X13468283Y-15919656D01*
X13482568Y-15905370D01*
X13511140Y-15891084D01*
X13553997Y-15891084D01*
X13582568Y-15905370D01*
X13596854Y-15919656D01*
X13611140Y-15948227D01*
X13611140Y-16033941D01*
X13596854Y-16062513D01*
X13582568Y-16076799D01*
X13553997Y-16091084D01*
X13511140Y-16091084D01*
X13782568Y-16091084D02*
X13753997Y-16076799D01*
X13739711Y-16048227D01*
X13739711Y-15791084D01*
X14011140Y-16076799D02*
X13982568Y-16091084D01*
X13925426Y-16091084D01*
X13896854Y-16076799D01*
X13882568Y-16048227D01*
X13882568Y-15933941D01*
X13896854Y-15905370D01*
X13925426Y-15891084D01*
X13982568Y-15891084D01*
X14011140Y-15905370D01*
X14025426Y-15933941D01*
X14025426Y-15962513D01*
X13882568Y-15991084D01*
X14139711Y-16076799D02*
X14168283Y-16091084D01*
X14225426Y-16091084D01*
X14253997Y-16076799D01*
X14268283Y-16048227D01*
X14268283Y-16033941D01*
X14253997Y-16005370D01*
X14225426Y-15991084D01*
X14182568Y-15991084D01*
X14153997Y-15976799D01*
X14139711Y-15948227D01*
X14139711Y-15933941D01*
X14153997Y-15905370D01*
X14182568Y-15891084D01*
X14225426Y-15891084D01*
X14253997Y-15905370D01*
X14368283Y-16205370D02*
X14382568Y-16191084D01*
X14411140Y-16148227D01*
X14425426Y-16119656D01*
X14439711Y-16076799D01*
X14453997Y-16005370D01*
X14453997Y-15948227D01*
X14439711Y-15876799D01*
X14425426Y-15833941D01*
X14411140Y-15805370D01*
X14382568Y-15762513D01*
X14368283Y-15748227D01*
M02*
