G04 #@! TF.GenerationSoftware,KiCad,Pcbnew,(5.1.6)-1*
G04 #@! TF.CreationDate,2022-02-26T06:54:02-05:00*
G04 #@! TF.ProjectId,C64-PSU-NA,4336342d-5053-4552-9d4e-412e6b696361,rev?*
G04 #@! TF.SameCoordinates,Original*
G04 #@! TF.FileFunction,Copper,L2,Bot*
G04 #@! TF.FilePolarity,Positive*
%FSLAX46Y46*%
G04 Gerber Fmt 4.6, Leading zero omitted, Abs format (unit mm)*
G04 Created by KiCad (PCBNEW (5.1.6)-1) date 2022-02-26 06:54:02*
%MOMM*%
%LPD*%
G01*
G04 APERTURE LIST*
G04 #@! TA.AperFunction,ComponentPad*
%ADD10C,3.000000*%
G04 #@! TD*
G04 #@! TA.AperFunction,ComponentPad*
%ADD11C,2.250000*%
G04 #@! TD*
G04 #@! TA.AperFunction,ComponentPad*
%ADD12C,2.745000*%
G04 #@! TD*
G04 #@! TA.AperFunction,ComponentPad*
%ADD13R,1.700000X1.700000*%
G04 #@! TD*
G04 #@! TA.AperFunction,ComponentPad*
%ADD14O,1.700000X1.700000*%
G04 #@! TD*
G04 #@! TA.AperFunction,ComponentPad*
%ADD15C,1.860000*%
G04 #@! TD*
G04 #@! TA.AperFunction,ComponentPad*
%ADD16C,1.400000*%
G04 #@! TD*
G04 #@! TA.AperFunction,ComponentPad*
%ADD17O,1.400000X1.400000*%
G04 #@! TD*
G04 #@! TA.AperFunction,ComponentPad*
%ADD18C,2.550000*%
G04 #@! TD*
G04 #@! TA.AperFunction,Conductor*
%ADD19C,2.000000*%
G04 #@! TD*
G04 #@! TA.AperFunction,Conductor*
%ADD20C,0.750000*%
G04 #@! TD*
G04 APERTURE END LIST*
D10*
X96699400Y-121276800D03*
X101799400Y-121276800D03*
X142399400Y-121276800D03*
X147499400Y-121276800D03*
X144999400Y-70476800D03*
X139899400Y-70476800D03*
X104299400Y-70476800D03*
X99199400Y-70476800D03*
D11*
X85699600Y-107449000D03*
X85699600Y-92449000D03*
D12*
X83134200Y-117525800D03*
X88214200Y-117525800D03*
X88214200Y-82626200D03*
X83134200Y-82626200D03*
X185343800Y-80416400D03*
X190423800Y-80416400D03*
X190449200Y-73634600D03*
X185369200Y-73634600D03*
X185115200Y-117449600D03*
X190195200Y-117449600D03*
X190220600Y-110769400D03*
X185140600Y-110769400D03*
D13*
X189687200Y-92075000D03*
D14*
X189687200Y-89535000D03*
D15*
X163614400Y-118288200D03*
X155614400Y-118288200D03*
X176414400Y-73288200D03*
X155614400Y-73288200D03*
D16*
X185343800Y-94462600D03*
D17*
X185343800Y-86842600D03*
G04 #@! TA.AperFunction,ComponentPad*
G36*
G01*
X105338800Y-64430799D02*
X105338800Y-66480801D01*
G75*
G02*
X105088801Y-66730800I-249999J0D01*
G01*
X103038799Y-66730800D01*
G75*
G02*
X102788800Y-66480801I0J249999D01*
G01*
X102788800Y-64430799D01*
G75*
G02*
X103038799Y-64180800I249999J0D01*
G01*
X105088801Y-64180800D01*
G75*
G02*
X105338800Y-64430799I0J-249999D01*
G01*
G37*
G04 #@! TD.AperFunction*
D18*
X99263800Y-65455800D03*
X87959600Y-74269600D03*
G04 #@! TA.AperFunction,ComponentPad*
G36*
G01*
X81884600Y-75294601D02*
X81884600Y-73244599D01*
G75*
G02*
X82134599Y-72994600I249999J0D01*
G01*
X84184601Y-72994600D01*
G75*
G02*
X84434600Y-73244599I0J-249999D01*
G01*
X84434600Y-75294601D01*
G75*
G02*
X84184601Y-75544600I-249999J0D01*
G01*
X82134599Y-75544600D01*
G75*
G02*
X81884600Y-75294601I0J249999D01*
G01*
G37*
G04 #@! TD.AperFunction*
G04 #@! TA.AperFunction,ComponentPad*
G36*
G01*
X126319200Y-64430799D02*
X126319200Y-66480801D01*
G75*
G02*
X126069201Y-66730800I-249999J0D01*
G01*
X124019199Y-66730800D01*
G75*
G02*
X123769200Y-66480801I0J249999D01*
G01*
X123769200Y-64430799D01*
G75*
G02*
X124019199Y-64180800I249999J0D01*
G01*
X126069201Y-64180800D01*
G75*
G02*
X126319200Y-64430799I0J-249999D01*
G01*
G37*
G04 #@! TD.AperFunction*
X120244200Y-65455800D03*
D19*
X190423800Y-80416400D02*
X185343800Y-80416400D01*
X163614400Y-102145800D02*
X185343800Y-80416400D01*
X163614400Y-118288200D02*
X163614400Y-102145800D01*
D20*
X185343800Y-80416400D02*
X185343800Y-86842600D01*
D19*
X190449200Y-73634600D02*
X185369200Y-73634600D01*
X155614400Y-103389400D02*
X155614400Y-118288200D01*
X185369200Y-73634600D02*
X155614400Y-103389400D01*
D20*
X189687200Y-89535000D02*
X193598800Y-85623400D01*
X193598800Y-76784200D02*
X190449200Y-73634600D01*
X193598800Y-85623400D02*
X193598800Y-76784200D01*
X185343800Y-94462600D02*
X188899800Y-94462600D01*
X189687200Y-93675200D02*
X189687200Y-92075000D01*
X188899800Y-94462600D02*
X189687200Y-93675200D01*
D19*
X91040600Y-92449000D02*
X85699600Y-92449000D01*
X99199400Y-84290200D02*
X91040600Y-92449000D01*
X99199400Y-65520200D02*
X99263800Y-65455800D01*
X99199400Y-70476800D02*
X99199400Y-84290200D01*
X125044200Y-68173600D02*
X125044200Y-65455800D01*
X122783600Y-70434200D02*
X125044200Y-68173600D01*
X113334800Y-70434200D02*
X122783600Y-70434200D01*
X104063800Y-65455800D02*
X108356400Y-65455800D01*
X108356400Y-65455800D02*
X113334800Y-70434200D01*
M02*
