G04 #@! TF.GenerationSoftware,KiCad,Pcbnew,(5.1.6)-1*
G04 #@! TF.CreationDate,2022-02-26T06:54:02-05:00*
G04 #@! TF.ProjectId,C64-PSU-NA,4336342d-5053-4552-9d4e-412e6b696361,rev?*
G04 #@! TF.SameCoordinates,Original*
G04 #@! TF.FileFunction,Soldermask,Bot*
G04 #@! TF.FilePolarity,Negative*
%FSLAX46Y46*%
G04 Gerber Fmt 4.6, Leading zero omitted, Abs format (unit mm)*
G04 Created by KiCad (PCBNEW (5.1.6)-1) date 2022-02-26 06:54:02*
%MOMM*%
%LPD*%
G01*
G04 APERTURE LIST*
%ADD10C,3.100000*%
%ADD11C,2.350000*%
%ADD12C,2.750000*%
%ADD13C,2.845000*%
%ADD14R,1.800000X1.800000*%
%ADD15O,1.800000X1.800000*%
%ADD16C,1.960000*%
%ADD17C,1.500000*%
%ADD18O,1.500000X1.500000*%
%ADD19C,2.650000*%
G04 APERTURE END LIST*
D10*
X96699400Y-121276800D03*
X101799400Y-121276800D03*
X142399400Y-121276800D03*
X147499400Y-121276800D03*
X144999400Y-70476800D03*
X139899400Y-70476800D03*
X104299400Y-70476800D03*
X99199400Y-70476800D03*
D11*
X85699600Y-107449000D03*
X85699600Y-92449000D03*
D12*
X85699600Y-99949000D03*
D13*
X83134200Y-117525800D03*
X88214200Y-117525800D03*
X88214200Y-82626200D03*
X83134200Y-82626200D03*
X185343800Y-80416400D03*
X190423800Y-80416400D03*
X190449200Y-73634600D03*
X185369200Y-73634600D03*
X185115200Y-117449600D03*
X190195200Y-117449600D03*
X190220600Y-110769400D03*
X185140600Y-110769400D03*
D14*
X189687200Y-92075000D03*
D15*
X189687200Y-89535000D03*
D16*
X163614400Y-118288200D03*
X155614400Y-118288200D03*
X176414400Y-73288200D03*
X155614400Y-73288200D03*
D17*
X185343800Y-94462600D03*
D18*
X185343800Y-86842600D03*
G36*
G01*
X105388800Y-64390603D02*
X105388800Y-66520997D01*
G75*
G02*
X105128997Y-66780800I-259803J0D01*
G01*
X102998603Y-66780800D01*
G75*
G02*
X102738800Y-66520997I0J259803D01*
G01*
X102738800Y-64390603D01*
G75*
G02*
X102998603Y-64130800I259803J0D01*
G01*
X105128997Y-64130800D01*
G75*
G02*
X105388800Y-64390603I0J-259803D01*
G01*
G37*
D19*
X99263800Y-65455800D03*
X87959600Y-74269600D03*
G36*
G01*
X81834600Y-75334797D02*
X81834600Y-73204403D01*
G75*
G02*
X82094403Y-72944600I259803J0D01*
G01*
X84224797Y-72944600D01*
G75*
G02*
X84484600Y-73204403I0J-259803D01*
G01*
X84484600Y-75334797D01*
G75*
G02*
X84224797Y-75594600I-259803J0D01*
G01*
X82094403Y-75594600D01*
G75*
G02*
X81834600Y-75334797I0J259803D01*
G01*
G37*
G36*
G01*
X126369200Y-64390603D02*
X126369200Y-66520997D01*
G75*
G02*
X126109397Y-66780800I-259803J0D01*
G01*
X123979003Y-66780800D01*
G75*
G02*
X123719200Y-66520997I0J259803D01*
G01*
X123719200Y-64390603D01*
G75*
G02*
X123979003Y-64130800I259803J0D01*
G01*
X126109397Y-64130800D01*
G75*
G02*
X126369200Y-64390603I0J-259803D01*
G01*
G37*
X120244200Y-65455800D03*
M02*
