M48
; DRILL file {KiCad (5.1.6)-1} date 02/26/22 06:54:04
; FORMAT={-:-/ absolute / metric / decimal}
; #@! TF.CreationDate,2022-02-26T06:54:04-05:00
; #@! TF.GenerationSoftware,Kicad,Pcbnew,(5.1.6)-1
; #@! TF.FileFunction,Plated,1,2,PTH
FMAT,2
METRIC
T1C0.700
T2C1.000
T3C1.240
T4C1.500
T5C1.550
T6C1.830
%
G90
G05
T1
X185.344Y-86.843
X185.344Y-94.463
T2
X189.687Y-89.535
X189.687Y-92.075
T3
X155.614Y-73.288
X155.614Y-118.288
X163.614Y-118.288
X176.414Y-73.288
T4
X85.7Y-92.449
X85.7Y-107.449
X96.699Y-121.277
X99.199Y-70.477
X101.799Y-121.277
X104.299Y-70.477
X139.899Y-70.477
X142.399Y-121.277
X144.999Y-70.477
X147.499Y-121.277
T5
X120.244Y-65.456
X125.044Y-65.456
X99.264Y-65.456
X104.064Y-65.456
X83.16Y-74.27
X87.96Y-74.27
T6
X185.344Y-80.416
X190.424Y-80.416
X185.141Y-110.769
X190.221Y-110.769
X83.134Y-82.626
X88.214Y-82.626
X185.369Y-73.635
X190.449Y-73.635
X83.134Y-117.526
X88.214Y-117.526
X185.115Y-117.45
X190.195Y-117.45
T0
M30
